<svg xmlns="http://www.w3.org/2000/svg" viewBox="0 0 480.01 480.29"><defs><style>.\31 9cee419-e83f-4857-9a9e-1cf4d0b8cfe8{fill:#fff;}</style></defs><title>Recurso 1blanco</title><g id="ff17d4fe-9ed1-4277-8e10-89019d7e3f03" data-name="Capa 2"><g id="92a606b3-b8d1-4102-8b9d-1b2e76bff754" data-name="Capa 1"><path class="19cee419-e83f-4857-9a9e-1cf4d0b8cfe8" d="M466.5,311.09c-1.3-4.1.5-7.2,1.3-10.2,2.4-8.7,4.4-17.6,6.2-26.4.8-3.9.4-8,.4-12,0-12.3.3-24.7-.3-37-.4-7.5-2.1-14.9-3.2-22.4-1.8-12.3-7.8-22.7-14.5-32.8-4.5-6.7-6-14.6-8.1-22.2-2.3-8.6-6.1-16.5-12.3-23.1a36.71,36.71,0,0,1-4.5-6.4c-3.5-5.7-8.4-10.3-12.7-15.4-1.9-2.3-4-4.6-5.9-7-1.4-1.8-2.8-3.5-5-4.4a5.89,5.89,0,0,1-2.4-2.3c-5.6-8.4-13.7-14.2-21.7-19.7-10.7-7.5-21.5-15-33.5-20.6a202.11,202.11,0,0,0-44.2-15c-8-1.7-16-3.6-24-4.9-5.1-.8-10.4-1.1-15.5-1.8-7.7-1.1-15.4-2.4-23.1-3.8-3.6-.7-9,2.9-9.5,6.6-.5,4.1-2.2,5.4-6.2,6.9-6.7,2.6-13.7,3.9-20.6,5-4.1.7-8.4.2-12.6.2-1.6,0-2.2-1.2-2.6-2.7-1.1-4.8-4.4-6.5-9.2-4.8-8.7,3-16.8,7.2-25.2,10.9-15.5,6.9-29.1,16.7-42.5,26.7a226.57,226.57,0,0,0-18.9,16.4c-9.1,8.5-16.5,18.6-23.6,28.8-4,5.8-8.4,11.3-11.5,17.6-1.2,2.5-2.2,5.2-3.3,7.8-.4,1.1-.5,2.1.8,2.5,2.9.8,1.9,2.7,1.2,4.3-4.8,10.8-10.2,21.3-14,32.4-2.5,7.3-4.3,14.8-6.1,22.3-1.9,8-3.4,16.2-5,24.3-.3,1.4-.1,3-.3,4.4a171.24,171.24,0,0,0-1.3,28.6,42.09,42.09,0,0,0,1.1,6c.2,1,.3,2.2-1,2.6s-1.5-1-2.2-1.7c-.8-1-.7-2.1-.7-3.3.2-15.8-1.2-31.6,0-47.3.5-5.8,1.9-11.4,2.3-17.2.7-10.3,4.4-19.8,7.9-29.2a254.09,254.09,0,0,1,41.2-71.3A222.92,222.92,0,0,1,108.3,73c8-7.1,15.9-14.4,25-20a272.52,272.52,0,0,1,32.2-16.7,188.9,188.9,0,0,1,29.4-10.1c7.6-1.9,15.3-3.7,23-5.3.4-.1,1-.1,1.3-.4,1-.9,3.3-.7,2.9-2.8s-2.4-1.1-3.4-1c-7.6,1.2-15.3,1.4-22.9,2.1-9.5.8-18.4,3.8-27.4,6a146.58,146.58,0,0,0-33.7,12.9c-7,3.7-14.3,6.8-21.1,10.8a237.41,237.41,0,0,0-20.4,14,256.71,256.71,0,0,0-28.7,25.4c-7.1,7.2-13,15.4-18.9,23.5-5,6.8-10.5,13.3-14.7,20.8-4.6,8.3-8.8,17-11.3,26.1-1.9,6.9-3.6,14-4.9,21.1-1,5.7-3.1,11.3-4.5,16.9a9.83,9.83,0,0,0-.5,1.6c.5,6.6-1.6,13-1.8,19.7a137.55,137.55,0,0,1-2.7,22.1c-1.1,5.7-.8,11.5-1.2,18.1a5.39,5.39,0,0,1-.9-3.9c.1-5.8-1.4-11.4-2.5-17.1a60.6,60.6,0,0,1-.5-8.5c-.6-10.9,1.5-21.3,3.9-31.9,1.7-7.4,3.3-14.7,5.5-22a187.91,187.91,0,0,1,8.8-23c5.4-12.3,11.9-23.9,17.9-35.8,4.8-9.5,11.7-17.7,18.4-25.9A212.79,212.79,0,0,1,84,59.09c14.8-12.4,30.2-24,48.1-32,10.2-4.5,20.3-9.6,30.8-13.2,7.9-2.7,15.8-5.5,24.2-6.9,5.3-.9,10.7-2.2,16.1-3.3,3.4-.7,6.9-.9,10.3-1.7,13.3-3,26.8-1.9,40.2-1.2,7,.4,14.1.1,21,1.2,9.8,1.6,19.9,1.4,29.4,5,4.3,1.6,8.4,3.7,12.9,5,11.5,3.1,21.9,8.5,32.4,14.2,8.1,4.4,15.6,9.5,23.4,14.3a25.87,25.87,0,0,1,6.1,4.8c4.3,4.9,10.7,7,15.5,11.4,6,5.6,12.6,10.7,17.7,17.3,4.6,5.9,10.1,11,14.7,16.9,6.5,8.4,11.3,17.7,16.6,26.8,7.2,12.3,14.4,24.6,20.4,37.5,3.2,6.9,4.4,14.4,6.5,21.7,2.1,7.6,3.2,15.5,5,23.1,1.5,6.5,2.2,13.2,3.3,19.7,2.1,12.6,1.3,25.2,1,37.8-.1,6.8-1.8,13.6-3.3,20.3-.8,3.6-1,7.4-2,11-1.7,6.8-3.2,13.7-5.8,20.2A20.32,20.32,0,0,0,466.5,311.09Z"/><path class="19cee419-e83f-4857-9a9e-1cf4d0b8cfe8" d="M438.4,369.69c-2.2,3.7-4,7.1-6.2,10.3a184.14,184.14,0,0,1-47.4,48.6c-12.6,8.8-25.4,17.1-39.6,23.3-13.1,5.7-26.2,11-40.1,14.6-9.8,2.5-19.7,4.1-29.4,6.8a180.58,180.58,0,0,1-29.7,6.3c-6.2.7-12.7,1.4-19-.7-3.2-1.1-6.7-.7-10.1-1.4-9.6-1.8-19.2-3.9-28.9-5.5-8.5-1.4-16.2-4.7-24.4-6.6-6.3-1.5-10.9-5.7-16.9-7.5a104.9,104.9,0,0,1-19.4-7.8,39.29,39.29,0,0,1-9.9-7c-9.2-9.1-18.5-17.9-29.7-24.6A26.48,26.48,0,0,1,77.5,407c-.7-1.4-1.2-2.4.5-3.8,2.1-1.7,1.7-5.4-.7-7.2-7.6-5.7-11.4-14.2-16.1-22a16.45,16.45,0,0,1-2.3-12c.5-2.1-.8-3.7-1.9-4.9a28.22,28.22,0,0,1-5.5-10.4c-2.2-6.7-5.6-12.9-7.2-19.8-.2-1-.9-2.1.3-2.7a1.75,1.75,0,0,1,2.5,1.6c.4,8.2,7.1,13.6,9.3,21.2,1.7,5.6,5.4,10.6,9.4,15.1A176.22,176.22,0,0,1,87.4,392c5.3,9.3,14.7,13.8,22.9,19.7,4,2.9,7.4,6.5,11.6,9.1,7.7,4.6,14.5,10.6,23.5,13.2,6,1.7,11.2,5.8,17.1,8,9.7,3.6,19.2,7.4,29.8,8.6s21,3,31.5,2c6.5-.6,13.1-.5,19.5-2.2,1.9-.5,4.1-.2,6.1-.4,17.8-2.4,35.7-3.6,52.8-10.3a332.81,332.81,0,0,0,34.8-16.1c17.2-9.1,32.2-21,46.7-33.8,6-5.3,12.5-10,17.1-16.8.3-.4.8-1,1.4-.8.9.3.6,1.2.5,1.8a5.48,5.48,0,0,1-.8,1.5c-7.8,11.1-15.7,22.2-25.6,31.5-7.4,6.9-15.3,13.4-23.4,19.6-11.1,8.5-23.3,14.8-36,20.6-6.4,2.9-13,5.3-19.4,8.2-1.5.7-4.3,1.4-3.6,3.2s3,.2,4.6-.3c7.5-2.1,15.3-3.1,22.7-5.6,8.3-2.8,16.7-5.3,24.8-8.8,6.9-2.9,13.3-6.8,19.7-10.6,15.5-9.2,30-19.8,42.7-32.7,7-7.1,14.4-13.9,20.8-21.6,2.2-2.6,3.9-5.5,6.5-7.8A6,6,0,0,1,438.4,369.69Z"/><path class="19cee419-e83f-4857-9a9e-1cf4d0b8cfe8" d="M122.9,177.19c2.1-7.2,5.9-13.1,9.2-19.2s7-11.9,10.1-18.4c-5,2.5-10.2,4.8-15.1,7.5-11.1,6.1-22.1,12.7-32.1,20.5-10.3,8-20,16.7-27.2,27.6-3.8,5.7-6.4,11.9-2.3,18.7,2.8,4.7,7.5,6.8,12.2,8.5,8,2.9,16.4,3.9,25.2,6-2.5,1.2-4.6.8-6.6.7-9.1-.5-18-1.7-26.3-5.9-9.5-4.8-13.2-13.7-10.3-23.9a45.9,45.9,0,0,1,10.4-17.9,182.75,182.75,0,0,1,30.2-26.7,260.54,260.54,0,0,1,47.8-27.4c5.6-2.5,8.7-7,12.8-10.7,5.7-5.3,10-6.1,16.8-2.4,1.4.7,2.5.1,3.5-.3a150.47,150.47,0,0,1,40.2-9.2c12.4-1,24.8-.4,36.3,5.4,14.6,7.4,20.1,20.5,17.8,36-2,13.4-8.8,24.2-16.6,34.6a182.88,182.88,0,0,1-20.2,22.9,298.69,298.69,0,0,1-33.6,27.8,234.58,234.58,0,0,1-38.3,22.8c-3.5,1.6-7.1,3-10.6,4.5a5.49,5.49,0,0,0-1.4,9.6c10.9,9.1,21,19,31.1,28.8,14.4,14,29.1,27.7,46.3,38.2a13.24,13.24,0,0,1,2,1.2c1.2.9,3.7,1.2,2.2,3.5-1.1,1.7-2.2,3.7-5.3,1.8a274.61,274.61,0,0,1-28.6-20.4c-10.9-9-20.7-19.1-30.9-28.8-6.3-6-13.2-11.4-19.8-17a8.38,8.38,0,0,0-1.9-.9c-2.6,9.8-5.3,19.5-7.8,29.2-2.2,8.4-4.2,16.9-6.3,25.4-2.4,10.2-4.7,20.5-6.2,30.9-.2,1.4-.1,3.8-1.6,3.7-1.9-.1-.9-2.4-.9-3.7-.3-13.2,1.6-26.2,3.9-39.2,3-17.3,7-34.3,10.8-51.4.4-1.9-3.1-4.8-5.7-4.9-3.5-.2-6.9,1.1-10.5.8-8.4-.5-16.1-2.4-21.7-9.2a20.65,20.65,0,0,1-4.8-11c-.4-4.6,4-7.4,9.1-6.1,9.2,2.2,16.9,7.3,24.5,12.6,3.8,2.6,9.2,3.2,12.8.6,1.7-1.2,1.5-3.7,1.9-5.5,2-10.2,4.9-20.2,7.4-30.3,3.5-14.5,6.9-29,10.1-43.5,2.7-12.4,5-24.8,6.8-37.4.4-2.9.1-5.9.1-9.2-3.9,1.6-7.8,3.2-11.7,4.7-4.1,1.5-5.6,5.5-8,8.5-8.9,11.6-17.4,23.5-26,35.3A4.29,4.29,0,0,1,122.9,177.19ZM229,113.49c-3.1,0-6.2-.3-9.2,0-12.6,1.3-24.5,5-36.5,8.8-2,.6-2.8,1.8-2.7,4a78.29,78.29,0,0,1-.1,13.7c-1.8,13.5-4.3,27-7.1,40.3-4.5,21.6-10,43.1-15.7,64.4-.2.8-.7,1.6-.1,2.2s1.4,0,2.1-.3c8-4.1,16-8,23.6-12.7,15.4-9.3,29.4-20.5,42.6-32.5,12-11,23.2-22.8,31.6-37,3.8-6.4,7.6-12.9,8.6-20.5,1.5-11.5-.4-19.7-12.9-26.4C245.7,113.49,237.4,113.19,229,113.49ZM108.8,248.09c2.5,6.1,8.8,9.3,16,8.2C119.8,252.89,115.2,249.39,108.8,248.09Z"/><path class="19cee419-e83f-4857-9a9e-1cf4d0b8cfe8" d="M307.5,307.39c-.9,3.4-3.6,4.1-5.7,5.3-.5.3-1.1.2-1.6.4-7.3,2.7-7.3,2.7-7.1,10.7,0,2,.4,2.4,2.3,1.3,5.7-3.4,9.7-8.6,14.3-13.1,7.5-7.3,14.8-14.8,22.3-22.2.9-.9,1.8-2.9,3.2-1.7s-.4,2.5-1,3.5c-5.1,8.9-11.5,16.9-18.1,24.8a121.63,121.63,0,0,1-14.5,15.1,15.86,15.86,0,0,1-10.2,3.9c-4.4.1-7.5-3.8-7.8-9.1-.1-1.1,0-2.3,0-3.4,0-5.6,0-5.6-5.3-4a25.58,25.58,0,0,1-5.9,1.5c-4.3.1-6.1,3.3-8.5,5.9a4.62,4.62,0,0,0-.9,4.5c2.7,11.2-1.3,16.7-10.2,22.5a35,35,0,0,1-12.7,5.3c-2.6.5-4.4-.1-5.6-1.9s-2.2-4.2-.9-6.7c2.8-5.1,6.5-9.4,10.2-13.8a75.1,75.1,0,0,1,6.6-7.2c1.5-1.4,1.3-2.3.4-4-3.8-7.1-8.4-13.7-11.2-21.3-5.5-15.3-2.5-28.9,7.8-41.2,5.8-6.9,12.4-12.9,20.5-16.9a22.65,22.65,0,0,1,11.2-2.4,7.3,7.3,0,0,1,7.2,7.5,50.48,50.48,0,0,1-.1,5.5c-.1.7-.3,1.7-1.3,1.7s-1.3-.9-1.2-1.7a11,11,0,0,0-.8-4c-1.1-3.7-3.1-4.8-6.8-4a19.49,19.49,0,0,0-9,5c-7.2,6.7-14.4,13.3-18.5,22.6-4.5,9.9-3.2,19.2,1.3,28.4,2.2,4.4,5.2,8.4,7.5,12.7,1.2,2.3,1.9,2.2,3.6.5,8.3-8.5,16.4-17.3,25.4-25,5.7-4.9,6-11.6,8-17.7,3.6-11.1,7.1-22.2,10.7-33.2,1-3.1,1.9-6.3,3-9.3.8-2.2.5-3-2.1-2.9-7.4.1-14.8.1-22.3,0-12-.2-24-.1-35.9-.8-5.6-.3-11.4-.1-16.8-1.9-.9-.3-2.1-.1-1.9-1.4a1.89,1.89,0,0,1,2.2-1.2c2.1.1,4-.5,6.1-.7,4.4-.4,8.8-.5,13.3-.7,12-.4,24.1-1,36.1-1.6,7.4-.4,14.8.2,22.1-1,2.1-.4,3.3-.5,3.8-3.1,1.5-7.1,3.6-14,5.5-21,.2-.7.1-2.1,1.5-2s.8,1.4.8,2.2a86.69,86.69,0,0,1-1.4,21c-.5,2.7.4,3,2.5,2.7,10.7-1.3,21.4-1.1,32.1-.6,11.8.6,23.6.4,35.4,1.8,9.7,1.1,19.4,1.6,29,3.5,2.7.5,5.2,1.4,7.9,2.1.7.2,1.4.5,1.4,1.3s-1,.8-1.6.8c-10-.4-20,.1-30.1-.5-9.7-.6-19.6-1-29.4.4-1,.1-2.1.1-3.1.1-14.4,0-28.8.1-43.2,0-2.5,0-3.5.8-4.1,3.2q-6.45,25.05-13.3,50.1c-2.4,8.5-4.8,16.9-6.9,25.5-.6,2.7-.4,3.1,2.5,2.4A77,77,0,0,1,307.5,307.39Zm-19.3-10.2a2.09,2.09,0,0,1-.6-.4c-4.2,5.4-8.4,10.8-13.2,17,3.7-.6,6.4-1.1,9-1.5a1.75,1.75,0,0,0,1.7-1.7C286,306.09,287.1,301.69,288.2,297.19Z"/><path class="19cee419-e83f-4857-9a9e-1cf4d0b8cfe8" d="M416.6,350.69c0-2.9,1.9-5.2,3-7.6,2.5-5.5,4.5-11.1,7.1-16.5a157.22,157.22,0,0,0,7-17.6c3.1-9.4,6.9-18.9,8.3-28.6,1.3-8.7,3.2-17.3,3.8-26.2.5-8.2.5-16.3.7-24.5.3-9.6-1.4-18.9-3.6-28.2a69.45,69.45,0,0,1-1.7-9.3c-.6-8.6-2.9-16.9-4.8-25.3a109.53,109.53,0,0,0-7.3-21.8,14.54,14.54,0,0,1-1.6-7.3c.2-1.6-.1-3.5,1.7-4s2.8,1.2,3.6,2.6a103.16,103.16,0,0,1,9.2,18.9c2.7,7.2,5.2,14.4,7.4,21.8s4,15.1,4,23c0,3.8-.7,7.7,1,11.5.7,1.6-.8,3-1,4.6-.4,3.1.8,6.1,1,9.1.3,7.4.8,14.9-.1,22.2-1.1,9.5-1.7,19.1-4.8,28.3-1.6,4.8-1.8,10-3.2,14.9-4.6,15.7-9.8,31.3-18.2,45.5-2.9,4.9-6.5,9.2-9.8,13.8A1.4,1.4,0,0,1,416.6,350.69Z"/><path class="19cee419-e83f-4857-9a9e-1cf4d0b8cfe8" d="M5.5,273.29c2.8,4,2.6,8.2,3.4,12,1.8,8.4,4.8,16.5,7.7,24.5,1.7,4.7,3.9,9.2,5.5,13.9,1.8,5,5.5,8.8,7.9,13.4a295.66,295.66,0,0,0,31.3,47.8,7.63,7.63,0,0,1,.8,1.1c.6,1.1,1.5,2.4.5,3.4s-2-.2-3.1-.6c-6.2-2.6-9.5-8.2-13.4-13.1a195.14,195.14,0,0,1-19.5-28.9c-3.8-7.1-5.8-14.9-8.9-22.3a143.91,143.91,0,0,1-9.2-28.3C7.1,288.89,4.5,281.69,5.5,273.29Z"/><path class="19cee419-e83f-4857-9a9e-1cf4d0b8cfe8" d="M374,271.69c.6,8-6.3,13.8-12.5,14-7.4.3-13.2-7.9-13.2-13.8,0-7.3,7.1-13.7,12.8-13.5C368.6,258.49,374.3,263.69,374,271.69Z"/><path class="19cee419-e83f-4857-9a9e-1cf4d0b8cfe8" d="M219,271.59c0,8-5.3,13.7-12.5,14-7,.3-12.8-6.8-13.1-13.4-.3-6.8,6.3-13.6,12.9-13.8C212.6,258.19,219.9,264.29,219,271.59Z"/><path class="19cee419-e83f-4857-9a9e-1cf4d0b8cfe8" d="M316.7,356.89c-8.3,6.5-46.3,4.2-58.8-3.1,1.7-2.9,3.5-4,7.3-2.6,14.1,5.1,28.8,6.9,43.8,6.3,1.2-.1,2.4-.5,3.7-.6C313.8,356.79,315,356.89,316.7,356.89Z"/></g></g></svg>