<svg xmlns="http://www.w3.org/2000/svg" viewBox="0 0 479.86 480.24"><defs><style>.cls-1{fill:#fff;}</style></defs><title>Recurso 1logo-blanco</title><g id="Capa_2" data-name="Capa 2"><g id="Capa_1-2" data-name="Capa 1"><path class="cls-1" d="M466.72,311c-1.26-4.06.49-7.19,1.34-10.22,2.44-8.73,4.43-17.55,6.17-26.42.76-3.86.37-8,.36-12,0-12.34.26-24.69-.32-37-.36-7.5-2.13-14.93-3.2-22.4-1.76-12.31-7.81-22.68-14.54-32.8-4.47-6.72-6-14.55-8.1-22.2-2.34-8.55-6.06-16.48-12.27-23.07a38.39,38.39,0,0,1-4.52-6.35c-3.52-5.69-8.41-10.31-12.66-15.43-1.93-2.33-4-4.61-5.91-7-1.45-1.78-2.81-3.46-5-4.42a6.18,6.18,0,0,1-2.43-2.28c-5.6-8.37-13.74-14.15-21.71-19.74-10.69-7.5-21.48-15-33.46-20.58a205.54,205.54,0,0,0-44.21-15c-8-1.67-15.95-3.58-24-4.86-5.14-.82-10.37-1.08-15.52-1.84q-11.56-1.68-23.06-3.75c-3.58-.65-9,2.93-9.45,6.65-.55,4.12-2.24,5.36-6.21,6.88-6.7,2.56-13.67,3.89-20.65,5-4.12.67-8.43.24-12.65.17-1.6,0-2.23-1.24-2.58-2.72-1.15-4.81-4.44-6.47-9.21-4.81-8.67,3-16.81,7.21-25.17,10.94-15.46,6.92-29.09,16.71-42.54,26.73A230.63,230.63,0,0,0,96.24,89c-9.14,8.51-16.49,18.56-23.6,28.77-4,5.75-8.44,11.25-11.51,17.62-1.23,2.54-2.21,5.21-3.3,7.82-.45,1.07-.55,2.11.83,2.46,2.92.76,1.87,2.75,1.19,4.28-4.78,10.76-10.2,21.27-14,32.42a231,231,0,0,0-6.11,22.3c-1.89,8-3.38,16.16-5,24.26-.28,1.44-.07,3-.26,4.44A175.48,175.48,0,0,0,33.22,262a50.51,50.51,0,0,0,1.06,6c.17,1,.31,2.18-1,2.55s-1.55-1-2.15-1.74a4.63,4.63,0,0,1-.72-3.26c.19-15.78-1.23-31.56.05-47.33.46-5.76,1.92-11.44,2.32-17.2.71-10.28,4.37-19.77,7.88-29.18,9.72-26,23.74-49.69,41.18-71.33A231.94,231.94,0,0,1,108.4,73c8-7.1,15.89-14.36,25-20a271.52,271.52,0,0,1,32.16-16.72A183.24,183.24,0,0,1,195,26.16c7.64-1.93,15.29-3.75,23-5.26a2.92,2.92,0,0,0,1.29-.39c1-.9,3.32-.74,2.9-2.81s-2.37-1.14-3.44-1c-7.59,1.18-15.29,1.44-22.9,2.12-9.51.84-18.39,3.76-27.42,6a152.59,152.59,0,0,0-33.73,12.88c-7,3.67-14.3,6.75-21,10.79a232.58,232.58,0,0,0-20.43,14A255.84,255.84,0,0,0,64.46,88c-7.07,7.22-12.95,15.44-18.91,23.54-5,6.84-10.51,13.34-14.68,20.81-4.64,8.34-8.8,17-11.3,26.07-1.91,6.9-3.62,14-4.91,21.09-1,5.67-3.05,11.25-4.49,16.91-.14.55-.53,1.09-.49,1.62.45,6.64-1.63,13-1.83,19.66a142.75,142.75,0,0,1-2.71,22.14c-1.08,5.72-.8,11.46-1.23,18.06A5.4,5.4,0,0,1,3.06,254c.06-5.83-1.38-11.42-2.46-17.09-.53-2.77-.36-5.68-.51-8.52C-.47,217.53,1.61,207.05,4,196.52c1.65-7.38,3.32-14.71,5.47-22a196,196,0,0,1,8.82-23c5.36-12.26,11.92-23.9,17.89-35.85C40.93,106.13,47.87,98,54.53,89.74A220.17,220.17,0,0,1,83.93,59.1c14.82-12.44,30.23-24,48.12-32,10.22-4.55,20.26-9.57,30.83-13.21,7.9-2.73,15.78-5.55,24.19-6.94,5.34-.88,10.73-2.19,16.11-3.3C206.59,3,210.06,2.78,213.5,2,226.75-1,240.3.06,253.65.78c7,.38,14.06.08,21,1.18C284.42,3.54,294.55,3.39,304,7c4.31,1.65,8.4,3.72,12.94,5,11.45,3.12,21.94,8.51,32.39,14.16,8.08,4.38,15.62,9.5,23.42,14.26a25.5,25.5,0,0,1,6.12,4.82c4.31,4.95,10.74,7,15.46,11.38,6,5.63,12.6,10.68,17.69,17.25,4.58,5.91,10.11,11,14.69,16.89,6.48,8.37,11.3,17.73,16.61,26.76,7.2,12.26,14.41,24.55,20.38,37.5,3.2,6.93,4.44,14.45,6.49,21.73,2.15,7.62,3.2,15.45,4.95,23.14,1.48,6.49,2.19,13.15,3.31,19.72,2.14,12.59,1.27,25.21,1,37.81-.14,6.84-1.79,13.61-3.3,20.33-.81,3.63-1,7.37-1.95,11-1.74,6.79-3.19,13.65-5.85,20.17A11.18,11.18,0,0,1,466.72,311Z"/><path class="cls-1" d="M438.68,369.57c-2.2,3.67-4,7.08-6.19,10.28a183.31,183.31,0,0,1-47.44,48.58c-12.56,8.8-25.42,17.12-39.57,23.34-13.07,5.75-26.22,11.05-40.08,14.62-9.76,2.52-19.74,4.08-29.43,6.84a180.08,180.08,0,0,1-29.73,6.33c-6.22.67-12.68,1.39-19-.72-3.19-1.06-6.7-.73-10.08-1.37-9.64-1.81-19.24-3.87-28.9-5.47-8.46-1.4-16.23-4.74-24.4-6.65-6.26-1.47-10.88-5.73-16.89-7.47a106,106,0,0,1-19.44-7.83,40.31,40.31,0,0,1-9.92-7c-9.16-9.11-18.53-17.87-29.71-24.59a27.43,27.43,0,0,1-10.24-11.51c-.7-1.39-1.18-2.4.48-3.76,2.07-1.69,1.73-5.36-.68-7.19-7.58-5.72-11.45-14.2-16.09-22-2-3.32-3.35-7.7-2.34-12.05.48-2.07-.81-3.7-1.88-4.92a28.9,28.9,0,0,1-5.5-10.4c-2.16-6.69-5.59-12.92-7.2-19.81-.24-1-.86-2.1.26-2.67a1.81,1.81,0,0,1,2.54,1.55c.43,8.23,7.1,13.64,9.34,21.17C58.27,352.44,62,357.51,66,362A173.06,173.06,0,0,1,87.59,391.9c5.32,9.25,14.7,13.78,22.89,19.71,4,2.88,7.39,6.55,11.55,9.07,7.67,4.64,14.5,10.62,23.5,13.22,6,1.73,11.21,5.8,17.08,8,9.66,3.64,19.19,7.38,29.76,8.6s21,3,31.48,2c6.5-.6,13.13-.49,19.54-2.17,2-.51,4.11-.16,6.13-.44,17.78-2.45,35.71-3.56,52.81-10.26a338.19,338.19,0,0,0,34.77-16.09c17.16-9.07,32.25-21,46.71-33.76,6-5.3,12.51-10.05,17.07-16.8.3-.44.78-1,1.4-.76.87.3.61,1.16.51,1.77a3.85,3.85,0,0,1-.78,1.46c-7.8,11.1-15.66,22.22-25.63,31.47-7.44,6.91-15.29,13.41-23.37,19.63-11.08,8.55-23.32,14.81-36,20.56-6.41,2.91-13,5.34-19.39,8.24-1.52.69-4.32,1.36-3.64,3.18s3,.2,4.56-.25c7.5-2.14,15.29-3.1,22.7-5.57,8.34-2.77,16.73-5.34,24.84-8.79,6.92-2.94,13.29-6.83,19.7-10.62,15.54-9.19,30-19.82,42.75-32.68,7-7.09,14.4-13.88,20.84-21.55,2.16-2.58,3.86-5.55,6.47-7.77A5.59,5.59,0,0,1,438.68,369.57Z"/><path class="cls-1" d="M123.19,177.08c2.08-7.21,5.91-13.08,9.22-19.16s7-11.95,10.08-18.41c-5,2.48-10.16,4.78-15.07,7.48-11.15,6.15-22.1,12.66-32.15,20.52-10.25,8-20,16.68-27.21,27.64-3.78,5.71-6.37,11.93-2.31,18.74,2.77,4.66,7.46,6.79,12.23,8.5,8,2.86,16.41,4,25.22,6-2.51,1.18-4.64.77-6.64.66-9.08-.49-18-1.74-26.3-5.88C60.71,218.42,57,209.54,60,199.3a46,46,0,0,1,10.44-18,185.14,185.14,0,0,1,30.2-26.73,264.36,264.36,0,0,1,47.75-27.39c5.62-2.48,8.71-7,12.78-10.72,5.73-5.29,10-6.1,16.85-2.36,1.35.74,2.48.09,3.53-.3a149.52,149.52,0,0,1,40.2-9.16c12.39-1,24.81-.41,36.26,5.4,14.64,7.42,20.1,20.49,17.77,36-2,13.41-8.8,24.21-16.58,34.63A190.62,190.62,0,0,1,239,203.61,292,292,0,0,1,205.4,231.4a242,242,0,0,1-38.27,22.8c-3.48,1.62-7,3-10.6,4.5a5.5,5.5,0,0,0-1.41,9.58c10.88,9.07,21,19,31.14,28.84,14.41,14,29.09,27.66,46.31,38.25a21,21,0,0,1,2,1.18c1.17.9,3.73,1.22,2.22,3.52-1.13,1.71-2.16,3.7-5.25,1.8a253.51,253.51,0,0,1-28.6-20.43c-10.91-9-20.7-19.09-30.88-28.82-6.28-6-13.17-11.4-19.81-17a8.35,8.35,0,0,0-1.94-.88c-2.61,9.82-5.25,19.51-7.75,29.23q-3.26,12.66-6.26,25.38c-2.44,10.23-4.74,20.48-6.16,30.92-.19,1.36-.07,3.75-1.58,3.65-1.9-.13-.88-2.39-.92-3.68C127.31,347,129.25,334,131.52,321c3-17.26,7-34.31,10.8-51.39.42-1.87-3.1-4.78-5.75-4.93-3.54-.19-6.94,1.06-10.51.84-8.36-.52-16.09-2.38-21.73-9.23a19.9,19.9,0,0,1-4.78-11c-.39-4.63,4-7.38,9.07-6.13,9.19,2.24,16.93,7.29,24.54,12.57,3.76,2.61,9.19,3.18,12.8.65,1.73-1.22,1.49-3.7,1.86-5.55,2-10.21,4.94-20.21,7.36-30.33,3.45-14.48,6.93-29,10.09-43.52,2.68-12.38,5-24.82,6.75-37.36.41-2.91.06-5.92.06-9.18-3.91,1.57-7.78,3.19-11.71,4.67-4.09,1.54-5.63,5.5-8,8.54-8.87,11.63-17.36,23.55-26,35.33A4.33,4.33,0,0,1,123.19,177.08Zm106.09-63.66a91.8,91.8,0,0,0-9.24,0c-12.56,1.28-24.54,5-36.51,8.81-2,.65-2.77,1.79-2.68,4,.17,4.56.53,9.2-.09,13.68-1.84,13.53-4.27,27-7.07,40.35-4.54,21.64-10,43.06-15.66,64.43-.21.79-.69,1.64-.13,2.23s1.42,0,2.1-.34c8-4.05,16-8,23.63-12.67A275,275,0,0,0,226.2,201.4c12-11,23.23-22.85,31.63-37,3.8-6.42,7.58-12.93,8.55-20.51,1.48-11.48-.35-19.7-12.91-26.42C245.93,113.44,237.62,113.11,229.28,113.42ZM109.09,248c2.51,6.13,8.8,9.33,16,8.25C120,252.8,115.45,249.35,109.09,248Z"/><path class="cls-1" d="M307.72,307.3c-.86,3.45-3.57,4.08-5.73,5.31a11.56,11.56,0,0,1-1.64.4c-7.33,2.68-7.31,2.7-7.14,10.65,0,2,.44,2.4,2.34,1.27,5.72-3.38,9.67-8.64,14.32-13.13,7.54-7.29,14.83-14.82,22.29-22.19.87-.86,1.79-2.86,3.22-1.69s-.37,2.47-1,3.53c-5.11,8.93-11.54,16.93-18.05,24.84a122.26,122.26,0,0,1-14.47,15.11,15.87,15.87,0,0,1-10.21,3.88c-4.44.1-7.45-3.84-7.78-9.11-.07-1.14,0-2.28,0-3.43,0-5.57,0-5.56-5.34-4-2,.56-3.94,1.44-5.92,1.48-4.26.08-6.09,3.29-8.46,5.87a4.63,4.63,0,0,0-.94,4.47c2.67,11.24-1.35,16.68-10.21,22.52a35,35,0,0,1-12.74,5.27c-2.6.49-4.37-.13-5.59-1.9-1.31-1.92-2.23-4.21-.88-6.68,2.76-5.08,6.51-9.42,10.2-13.8a92.15,92.15,0,0,1,6.59-7.23c1.47-1.4,1.28-2.34.39-4-3.82-7.05-8.42-13.7-11.17-21.31-5.52-15.26-2.53-28.86,7.79-41.16,5.81-6.93,12.35-12.89,20.53-16.92A21.72,21.72,0,0,1,279.31,243a7.19,7.19,0,0,1,7.15,7.48c0,1.83.06,3.66-.07,5.48-.06.72-.33,1.72-1.28,1.74s-1.27-.87-1.2-1.71a11.06,11.06,0,0,0-.77-4c-1.07-3.69-3.07-4.82-6.76-4a19.94,19.94,0,0,0-9,5c-7.19,6.66-14.36,13.31-18.55,22.61-4.46,9.88-3.24,19.24,1.3,28.45,2.17,4.41,5.19,8.4,7.52,12.74,1.22,2.26,1.86,2.19,3.57.46,8.34-8.47,16.42-17.28,25.4-25,5.75-5,6-11.64,8-17.7,3.59-11.07,7.09-22.17,10.68-33.23,1-3.12,1.9-6.27,3-9.34.79-2.18.47-3-2.08-2.94-7.42.14-14.85.12-22.27,0-12-.16-24-.08-35.9-.78-5.6-.33-11.36-.08-16.85-1.88-.85-.28-2.08-.15-1.87-1.4.16-.9,1.25-1.26,2.18-1.22,2.07.1,4-.48,6.06-.68,4.41-.41,8.85-.54,13.28-.7,12.05-.42,24.1-1,36.13-1.63,7.35-.39,14.77.18,22.11-1,2.15-.36,3.26-.48,3.82-3.09,1.51-7.06,3.59-14,5.53-21,.21-.74.15-2.08,1.47-1.95s.8,1.42.83,2.17a86.1,86.1,0,0,1-1.42,21c-.54,2.66.44,3,2.5,2.71,10.69-1.3,21.45-1.1,32.11-.55,11.79.61,23.6.42,35.38,1.76,9.67,1.11,19.4,1.64,29,3.51,2.65.52,5.24,1.37,7.86,2.06.69.19,1.44.47,1.35,1.28s-1,.79-1.64.76c-10-.4-20,.14-30.06-.5-9.73-.62-19.59-1-29.36.41a21,21,0,0,1-3.07.09c-14.4,0-28.79.08-43.18,0-2.54,0-3.49.83-4.11,3.22-4.34,16.71-8.7,33.41-13.32,50.05-2.36,8.47-4.82,16.91-6.86,25.47-.64,2.7-.36,3.14,2.51,2.44S304.2,308,307.72,307.3Zm-19.27-10.19-.65-.36-13.23,17c3.72-.64,6.35-1.14,9-1.53a1.76,1.76,0,0,0,1.72-1.67C286.27,306,287.39,301.58,288.45,297.11Z"/><path class="cls-1" d="M416.87,350.57c0-2.89,1.91-5.19,3-7.63,2.47-5.46,4.53-11.1,7.07-16.47a157.2,157.2,0,0,0,7-17.58c3.14-9.43,6.88-18.85,8.34-28.58,1.3-8.68,3.24-17.31,3.79-26.21.51-8.18.49-16.35.75-24.51.3-9.59-1.44-18.9-3.62-28.2a59.26,59.26,0,0,1-1.65-9.33c-.6-8.58-2.88-16.88-4.82-25.26a109.17,109.17,0,0,0-7.3-21.83,14,14,0,0,1-1.55-7.27c.17-1.6-.12-3.51,1.72-4s2.82,1.25,3.63,2.57a105.62,105.62,0,0,1,9.2,18.88c2.66,7.18,5.24,14.41,7.4,21.75s4,15.06,4,23c0,3.83-.65,7.73,1,11.48.68,1.59-.76,3-1,4.59-.41,3.12.84,6.06.95,9.06.28,7.42.77,14.92-.06,22.24-1.08,9.47-1.69,19.07-4.84,28.27-1.63,4.76-1.75,10-3.19,14.88-4.64,15.73-9.79,31.3-18.16,45.51-2.85,4.85-6.48,9.25-9.83,13.8C418.42,350.12,418,350.9,416.87,350.57Z"/><path class="cls-1" d="M5.8,273.25c2.84,4,2.55,8.19,3.37,12,1.85,8.43,4.79,16.46,7.7,24.52,1.68,4.67,3.87,9.17,5.51,13.85,1.76,5,5.47,8.81,7.87,13.41a291.42,291.42,0,0,0,31.28,47.75,7.86,7.86,0,0,1,.82,1.1c.59,1.09,1.46,2.43.46,3.43s-2-.21-3.06-.64c-6.21-2.58-9.51-8.23-13.37-13.1a192.2,192.2,0,0,1-19.51-28.85c-3.77-7.09-5.75-14.94-8.89-22.31A142.19,142.19,0,0,1,8.8,296C7.38,288.81,4.79,281.58,5.8,273.25Z"/><path class="cls-1" d="M374.29,271.58c.63,8-6.28,13.75-12.55,14-7.36.25-13.18-7.88-13.16-13.82,0-7.32,7.11-13.67,12.8-13.5C368.82,258.45,374.61,263.64,374.29,271.58Z"/><path class="cls-1" d="M219.24,271.46c0,8-5.27,13.66-12.51,14-7,.3-12.84-6.77-13.11-13.44-.27-6.83,6.32-13.62,12.87-13.76C212.83,258.08,220.19,264.19,219.24,271.46Z"/><path class="cls-1" d="M317,356.8c-8.29,6.49-46.29,4.19-58.83-3.08,1.72-2.87,3.46-4,7.28-2.6a114.25,114.25,0,0,0,43.8,6.29c1.23-.06,2.44-.48,3.68-.59S315.26,356.8,317,356.8Z"/></g></g></svg>