<?xml version="1.0" encoding="utf-8"?>
<!-- Generator: Adobe Illustrator 22.1.0, SVG Export Plug-In . SVG Version: 6.00 Build 0)  -->
<svg version="1.1" id="Capa_1" xmlns="http://www.w3.org/2000/svg" xmlns:xlink="http://www.w3.org/1999/xlink" x="0px" y="0px"
	 viewBox="0 0 500 500" style="enable-background:new 0 0 500 500;" xml:space="preserve">
<style type="text/css">
	.st0{fill:#FFFFFF;}
</style>
<g>
	<path class="st0" d="M476.9,321c-1.3-4.1,0.5-7.2,1.3-10.2c2.4-8.7,4.4-17.6,6.2-26.4c0.8-3.9,0.4-8,0.4-12c0-12.3,0.3-24.7-0.3-37
		c-0.4-7.5-2.1-14.9-3.2-22.4c-1.8-12.3-7.8-22.7-14.5-32.8c-4.5-6.7-6-14.6-8.1-22.2c-2.3-8.6-6.1-16.5-12.3-23.1
		c-1.8-1.9-3.1-4.1-4.5-6.4c-3.5-5.7-8.4-10.3-12.7-15.4c-1.9-2.3-4-4.6-5.9-7c-1.4-1.8-2.8-3.5-5-4.4c-1-0.4-1.8-1.4-2.4-2.3
		c-5.6-8.4-13.7-14.2-21.7-19.7c-10.7-7.5-21.5-15-33.5-20.6c-14.2-6.6-28.8-11.8-44.2-15c-8-1.7-16-3.6-24-4.9
		c-5.1-0.8-10.4-1.1-15.5-1.8c-7.7-1.1-15.4-2.4-23.1-3.8c-3.6-0.6-9,2.9-9.5,6.6c-0.5,4.1-2.2,5.4-6.2,6.9
		c-6.7,2.6-13.7,3.9-20.6,5c-4.1,0.7-8.4,0.2-12.6,0.2c-1.6,0-2.2-1.2-2.6-2.7c-1.1-4.8-4.4-6.5-9.2-4.8c-8.7,3-16.8,7.2-25.2,10.9
		c-15.5,6.9-29.1,16.7-42.5,26.7c-6.7,5-12.8,10.7-18.9,16.4c-9.1,8.5-16.5,18.6-23.6,28.8c-4,5.8-8.4,11.3-11.5,17.6
		c-1.2,2.5-2.2,5.2-3.3,7.8c-0.4,1.1-0.5,2.1,0.8,2.5c2.9,0.8,1.9,2.7,1.2,4.3c-4.8,10.8-10.2,21.3-14,32.4
		c-2.5,7.3-4.3,14.8-6.1,22.3c-1.9,8-3.4,16.2-5,24.3c-0.3,1.4-0.1,3-0.3,4.4c-1.2,9.5-1.7,19.1-1.3,28.6c0.1,2,0.7,4,1.1,6
		c0.2,1,0.3,2.2-1,2.6c-1.4,0.4-1.5-1-2.2-1.7c-0.8-1-0.7-2.1-0.7-3.3c0.2-15.8-1.2-31.6,0-47.3c0.5-5.8,1.9-11.4,2.3-17.2
		c0.7-10.3,4.4-19.8,7.9-29.2c9.7-26,23.7-49.7,41.2-71.3c8-10,17-19,26.6-27.5c8-7.1,15.9-14.4,25-20c10.3-6.3,21.1-11.8,32.2-16.7
		c9.5-4.2,19.3-7.5,29.4-10.1c7.6-1.9,15.3-3.7,23-5.3c0.4-0.1,1-0.1,1.3-0.4c1-0.9,3.3-0.7,2.9-2.8c-0.4-2-2.4-1.1-3.4-1
		c-7.6,1.2-15.3,1.4-22.9,2.1c-9.5,0.8-18.4,3.8-27.4,6c-11.7,2.9-23,7.2-33.7,12.9c-7,3.7-14.3,6.8-21.1,10.8
		c-7.1,4.2-13.8,9.1-20.4,14C93.1,80.3,83.6,88.9,74.6,98c-7.1,7.2-13,15.4-18.9,23.5c-5,6.8-10.5,13.3-14.7,20.8
		c-4.6,8.3-8.8,17-11.3,26.1c-1.9,6.9-3.6,14-4.9,21.1c-1,5.7-3.1,11.3-4.5,16.9c-0.1,0.5-0.5,1.1-0.5,1.6c0.5,6.6-1.6,13-1.8,19.7
		c-0.2,7.4-1.3,14.8-2.7,22.1c-1.1,5.7-0.8,11.5-1.2,18.1c-1.2-1.8-0.9-2.9-0.9-3.9c0.1-5.8-1.4-11.4-2.5-17.1
		c-0.5-2.8-0.4-5.7-0.5-8.5c-0.6-10.9,1.5-21.3,3.9-31.9c1.7-7.4,3.3-14.7,5.5-22c2.3-7.9,5.5-15.5,8.8-23
		c5.4-12.3,11.9-23.9,17.9-35.8c4.8-9.5,11.7-17.7,18.4-25.9c8.9-11.1,18.5-21.5,29.4-30.6c14.8-12.4,30.2-24,48.1-32
		c10.2-4.5,20.3-9.6,30.8-13.2c7.9-2.7,15.8-5.5,24.2-6.9c5.3-0.9,10.7-2.2,16.1-3.3c3.4-0.7,6.9-0.9,10.3-1.7
		c13.3-3,26.8-1.9,40.2-1.2c7,0.4,14.1,0.1,21,1.2c9.8,1.6,19.9,1.4,29.4,5c4.3,1.6,8.4,3.7,12.9,5c11.5,3.1,21.9,8.5,32.4,14.2
		c8.1,4.4,15.6,9.5,23.4,14.3c2.2,1.4,4.4,2.8,6.1,4.8c4.3,4.9,10.7,7,15.5,11.4c6,5.6,12.6,10.7,17.7,17.3
		c4.6,5.9,10.1,11,14.7,16.9c6.5,8.4,11.3,17.7,16.6,26.8c7.2,12.3,14.4,24.6,20.4,37.5c3.2,6.9,4.4,14.4,6.5,21.7
		c2.1,7.6,3.2,15.5,5,23.1c1.5,6.5,2.2,13.2,3.3,19.7c2.1,12.6,1.3,25.2,1,37.8c-0.1,6.8-1.8,13.6-3.3,20.3c-0.8,3.6-1,7.4-2,11
		c-1.7,6.8-3.2,13.7-5.8,20.2C478.2,319.6,477.6,320.1,476.9,321z"/>
	<path class="st0" d="M448.8,379.6c-2.2,3.7-4,7.1-6.2,10.3c-12.8,19.1-28.6,35.4-47.4,48.6c-12.6,8.8-25.4,17.1-39.6,23.3
		c-13.1,5.7-26.2,11-40.1,14.6c-9.8,2.5-19.7,4.1-29.4,6.8c-9.8,2.8-19.7,5.2-29.7,6.3c-6.2,0.7-12.7,1.4-19-0.7
		c-3.2-1.1-6.7-0.7-10.1-1.4c-9.6-1.8-19.2-3.9-28.9-5.5c-8.5-1.4-16.2-4.7-24.4-6.6c-6.3-1.5-10.9-5.7-16.9-7.5
		c-6.7-1.9-13.2-4.6-19.4-7.8c-3.7-1.9-7.1-4.2-9.9-7c-9.2-9.1-18.5-17.9-29.7-24.6c-4.5-2.7-7.9-6.7-10.2-11.5
		c-0.7-1.4-1.2-2.4,0.5-3.8c2.1-1.7,1.7-5.4-0.7-7.2c-7.6-5.7-11.4-14.2-16.1-22c-2-3.3-3.3-7.7-2.3-12c0.5-2.1-0.8-3.7-1.9-4.9
		c-2.7-3.1-4.3-6.6-5.5-10.4c-2.2-6.7-5.6-12.9-7.2-19.8c-0.2-1-0.9-2.1,0.3-2.7c1.4-0.7,2.5,0.6,2.5,1.6c0.4,8.2,7.1,13.6,9.3,21.2
		c1.7,5.6,5.4,10.6,9.4,15.1c8.3,9.2,15.4,19.2,21.6,29.9c5.3,9.3,14.7,13.8,22.9,19.7c4,2.9,7.4,6.5,11.6,9.1
		c7.7,4.6,14.5,10.6,23.5,13.2c6,1.7,11.2,5.8,17.1,8c9.7,3.6,19.2,7.4,29.8,8.6c10.5,1.2,21,3,31.5,2c6.5-0.6,13.1-0.5,19.5-2.2
		c1.9-0.5,4.1-0.2,6.1-0.4c17.8-2.4,35.7-3.6,52.8-10.3c12-4.7,23.5-10.1,34.8-16.1c17.2-9.1,32.2-21,46.7-33.8
		c6-5.3,12.5-10,17.1-16.8c0.3-0.4,0.8-1,1.4-0.8c0.9,0.3,0.6,1.2,0.5,1.8c-0.1,0.5-0.5,1-0.8,1.5c-7.8,11.1-15.7,22.2-25.6,31.5
		c-7.4,6.9-15.3,13.4-23.4,19.6c-11.1,8.5-23.3,14.8-36,20.6c-6.4,2.9-13,5.3-19.4,8.2c-1.5,0.7-4.3,1.4-3.6,3.2
		c0.7,1.8,3,0.2,4.6-0.3c7.5-2.1,15.3-3.1,22.7-5.6c8.3-2.8,16.7-5.3,24.8-8.8c6.9-2.9,13.3-6.8,19.7-10.6
		c15.5-9.2,30-19.8,42.7-32.7c7-7.1,14.4-13.9,20.8-21.6c2.2-2.6,3.9-5.5,6.5-7.8C446.7,380.7,447.3,379.9,448.8,379.6z"/>
	<path class="st0" d="M133.3,187.1c2.1-7.2,5.9-13.1,9.2-19.2c3.3-6.1,7-11.9,10.1-18.4c-5,2.5-10.2,4.8-15.1,7.5
		c-11.1,6.1-22.1,12.7-32.1,20.5c-10.3,8-20,16.7-27.2,27.6c-3.8,5.7-6.4,11.9-2.3,18.7c2.8,4.7,7.5,6.8,12.2,8.5
		c8,2.9,16.4,3.9,25.2,6c-2.5,1.2-4.6,0.8-6.6,0.7c-9.1-0.5-18-1.7-26.3-5.9c-9.5-4.8-13.2-13.7-10.3-23.9c2-6.9,5.8-12.8,10.4-17.9
		c9-10.1,19.2-18.8,30.2-26.7c15-10.8,30.9-20,47.8-27.4c5.6-2.5,8.7-7,12.8-10.7c5.7-5.3,10-6.1,16.8-2.4c1.4,0.7,2.5,0.1,3.5-0.3
		c13-4.8,26.4-8.1,40.2-9.2c12.4-1,24.8-0.4,36.3,5.4c14.6,7.4,20.1,20.5,17.8,36c-2,13.4-8.8,24.2-16.6,34.6
		c-6.1,8.2-12.8,15.8-20.2,22.9c-10.5,10.1-21.7,19.3-33.6,27.8c-12.1,8.7-24.7,16.5-38.3,22.8c-3.5,1.6-7.1,3-10.6,4.5
		c-4.2,1.7-4.9,6.7-1.4,9.6c10.9,9.1,21,19,31.1,28.8c14.4,14,29.1,27.7,46.3,38.2c0.7,0.4,1.4,0.7,2,1.2c1.2,0.9,3.7,1.2,2.2,3.5
		c-1.1,1.7-2.2,3.7-5.3,1.8c-10-6.2-19.5-13-28.6-20.4c-10.9-9-20.7-19.1-30.9-28.8c-6.3-6-13.2-11.4-19.8-17
		c-0.5-0.4-1.2-0.6-1.9-0.9c-2.6,9.8-5.3,19.5-7.8,29.2c-2.2,8.4-4.2,16.9-6.3,25.4c-2.4,10.2-4.7,20.5-6.2,30.9
		c-0.2,1.4-0.1,3.8-1.6,3.7c-1.9-0.1-0.9-2.4-0.9-3.7c-0.3-13.2,1.6-26.2,3.9-39.2c3-17.3,7-34.3,10.8-51.4c0.4-1.9-3.1-4.8-5.7-4.9
		c-3.5-0.2-6.9,1.1-10.5,0.8c-8.4-0.5-16.1-2.4-21.7-9.2c-2.6-3.2-4.4-6.9-4.8-11c-0.4-4.6,4-7.4,9.1-6.1
		c9.2,2.2,16.9,7.3,24.5,12.6c3.8,2.6,9.2,3.2,12.8,0.6c1.7-1.2,1.5-3.7,1.9-5.5c2-10.2,4.9-20.2,7.4-30.3
		c3.5-14.5,6.9-29,10.1-43.5c2.7-12.4,5-24.8,6.8-37.4c0.4-2.9,0.1-5.9,0.1-9.2c-3.9,1.6-7.8,3.2-11.7,4.7c-4.1,1.5-5.6,5.5-8,8.5
		c-8.9,11.6-17.4,23.5-26,35.3C135.9,185.8,135.3,186.7,133.3,187.1z M239.4,123.4c-3.1,0-6.2-0.3-9.2,0c-12.6,1.3-24.5,5-36.5,8.8
		c-2,0.6-2.8,1.8-2.7,4c0.2,4.6,0.5,9.2-0.1,13.7c-1.8,13.5-4.3,27-7.1,40.3c-4.5,21.6-10,43.1-15.7,64.4c-0.2,0.8-0.7,1.6-0.1,2.2
		c0.6,0.7,1.4,0,2.1-0.3c8-4.1,16-8,23.6-12.7c15.4-9.3,29.4-20.5,42.6-32.5c12-11,23.2-22.8,31.6-37c3.8-6.4,7.6-12.9,8.6-20.5
		c1.5-11.5-0.4-19.7-12.9-26.4C256.1,123.4,247.8,123.1,239.4,123.4z M119.2,258c2.5,6.1,8.8,9.3,16,8.2
		C130.2,262.8,125.6,259.3,119.2,258z"/>
	<path class="st0" d="M317.9,317.3c-0.9,3.4-3.6,4.1-5.7,5.3c-0.5,0.3-1.1,0.2-1.6,0.4c-7.3,2.7-7.3,2.7-7.1,10.7
		c0,2,0.4,2.4,2.3,1.3c5.7-3.4,9.7-8.6,14.3-13.1c7.5-7.3,14.8-14.8,22.3-22.2c0.9-0.9,1.8-2.9,3.2-1.7c1.4,1.1-0.4,2.5-1,3.5
		c-5.1,8.9-11.5,16.9-18.1,24.8c-4.4,5.4-9.2,10.5-14.5,15.1c-3,2.6-6.5,3.8-10.2,3.9c-4.4,0.1-7.5-3.8-7.8-9.1
		c-0.1-1.1,0-2.3,0-3.4c0-5.6,0-5.6-5.3-4c-2,0.6-3.9,1.4-5.9,1.5c-4.3,0.1-6.1,3.3-8.5,5.9c-1.2,1.3-1.3,2.9-0.9,4.5
		c2.7,11.2-1.3,16.7-10.2,22.5c-3.8,2.5-8,4.4-12.7,5.3c-2.6,0.5-4.4-0.1-5.6-1.9c-1.3-1.9-2.2-4.2-0.9-6.7
		c2.8-5.1,6.5-9.4,10.2-13.8c2.1-2.5,4.2-5,6.6-7.2c1.5-1.4,1.3-2.3,0.4-4c-3.8-7.1-8.4-13.7-11.2-21.3c-5.5-15.3-2.5-28.9,7.8-41.2
		c5.8-6.9,12.4-12.9,20.5-16.9c3.5-1.7,7.2-2.6,11.2-2.4c4.3,0.3,7.1,3.2,7.2,7.5c0,1.8,0.1,3.7-0.1,5.5c-0.1,0.7-0.3,1.7-1.3,1.7
		c-1,0-1.3-0.9-1.2-1.7c0.1-1.4-0.4-2.7-0.8-4c-1.1-3.7-3.1-4.8-6.8-4c-3.5,0.8-6.6,2.7-9,5c-7.2,6.7-14.4,13.3-18.5,22.6
		c-4.5,9.9-3.2,19.2,1.3,28.4c2.2,4.4,5.2,8.4,7.5,12.7c1.2,2.3,1.9,2.2,3.6,0.5c8.3-8.5,16.4-17.3,25.4-25c5.7-4.9,6-11.6,8-17.7
		c3.6-11.1,7.1-22.2,10.7-33.2c1-3.1,1.9-6.3,3-9.3c0.8-2.2,0.5-3-2.1-2.9c-7.4,0.1-14.8,0.1-22.3,0c-12-0.2-24-0.1-35.9-0.8
		c-5.6-0.3-11.4-0.1-16.8-1.9c-0.9-0.3-2.1-0.1-1.9-1.4c0.2-0.9,1.2-1.3,2.2-1.2c2.1,0.1,4-0.5,6.1-0.7c4.4-0.4,8.8-0.5,13.3-0.7
		c12-0.4,24.1-1,36.1-1.6c7.4-0.4,14.8,0.2,22.1-1c2.1-0.4,3.3-0.5,3.8-3.1c1.5-7.1,3.6-14,5.5-21c0.2-0.7,0.1-2.1,1.5-2
		c1.5,0.1,0.8,1.4,0.8,2.2c0.3,7.1,0,14.1-1.4,21c-0.5,2.7,0.4,3,2.5,2.7c10.7-1.3,21.4-1.1,32.1-0.6c11.8,0.6,23.6,0.4,35.4,1.8
		c9.7,1.1,19.4,1.6,29,3.5c2.7,0.5,5.2,1.4,7.9,2.1c0.7,0.2,1.4,0.5,1.4,1.3c-0.1,0.9-1,0.8-1.6,0.8c-10-0.4-20,0.1-30.1-0.5
		c-9.7-0.6-19.6-1-29.4,0.4c-1,0.1-2.1,0.1-3.1,0.1c-14.4,0-28.8,0.1-43.2,0c-2.5,0-3.5,0.8-4.1,3.2c-4.3,16.7-8.7,33.4-13.3,50.1
		c-2.4,8.5-4.8,16.9-6.9,25.5c-0.6,2.7-0.4,3.1,2.5,2.4C311.4,318.9,314.3,318,317.9,317.3z M298.6,307.1c-0.2-0.1-0.4-0.2-0.6-0.4
		c-4.2,5.4-8.4,10.8-13.2,17c3.7-0.6,6.4-1.1,9-1.5c1.1-0.2,1.5-0.6,1.7-1.7C296.4,316,297.5,311.6,298.6,307.1z"/>
	<path class="st0" d="M427,360.6c0-2.9,1.9-5.2,3-7.6c2.5-5.5,4.5-11.1,7.1-16.5c2.7-5.7,5-11.6,7-17.6c3.1-9.4,6.9-18.9,8.3-28.6
		c1.3-8.7,3.2-17.3,3.8-26.2c0.5-8.2,0.5-16.3,0.7-24.5c0.3-9.6-1.4-18.9-3.6-28.2c-0.7-3-1.4-6.1-1.7-9.3
		c-0.6-8.6-2.9-16.9-4.8-25.3c-1.8-7.6-4-14.8-7.3-21.8c-1-2.1-1.8-4.6-1.6-7.3c0.2-1.6-0.1-3.5,1.7-4c1.8-0.5,2.8,1.2,3.6,2.6
		c3.7,6,6.8,12.3,9.2,18.9c2.7,7.2,5.2,14.4,7.4,21.8c2.2,7.5,4,15.1,4,23c0,3.8-0.7,7.7,1,11.5c0.7,1.6-0.8,3-1,4.6
		c-0.4,3.1,0.8,6.1,1,9.1c0.3,7.4,0.8,14.9-0.1,22.2c-1.1,9.5-1.7,19.1-4.8,28.3c-1.6,4.8-1.8,10-3.2,14.9
		c-4.6,15.7-9.8,31.3-18.2,45.5c-2.9,4.9-6.5,9.2-9.8,13.8C428.6,360.1,428.1,360.9,427,360.6z"/>
	<path class="st0" d="M15.9,283.2c2.8,4,2.6,8.2,3.4,12c1.8,8.4,4.8,16.5,7.7,24.5c1.7,4.7,3.9,9.2,5.5,13.9c1.8,5,5.5,8.8,7.9,13.4
		c8.9,16.9,19.3,32.9,31.3,47.8c0.3,0.4,0.6,0.7,0.8,1.1c0.6,1.1,1.5,2.4,0.5,3.4c-0.9,0.9-2-0.2-3.1-0.6
		c-6.2-2.6-9.5-8.2-13.4-13.1c-7.2-9.1-14-18.6-19.5-28.9c-3.8-7.1-5.8-14.9-8.9-22.3c-3.9-9.2-7.3-18.6-9.2-28.3
		C17.5,298.8,14.9,291.6,15.9,283.2z"/>
	<path class="st0" d="M384.4,281.6c0.6,8-6.3,13.8-12.5,14c-7.4,0.3-13.2-7.9-13.2-13.8c0-7.3,7.1-13.7,12.8-13.5
		C379,268.4,384.7,273.6,384.4,281.6z"/>
	<path class="st0" d="M229.4,281.5c0,8-5.3,13.7-12.5,14c-7,0.3-12.8-6.8-13.1-13.4c-0.3-6.8,6.3-13.6,12.9-13.8
		C223,268.1,230.3,274.2,229.4,281.5z"/>
	<path class="st0" d="M327.1,366.8c-8.3,6.5-46.3,4.2-58.8-3.1c1.7-2.9,3.5-4,7.3-2.6c14.1,5.1,28.8,6.9,43.8,6.3
		c1.2-0.1,2.4-0.5,3.7-0.6C324.2,366.7,325.4,366.8,327.1,366.8z"/>
</g>
<g>
</g>
<g>
</g>
<g>
</g>
<g>
</g>
<g>
</g>
<g>
</g>
<g>
</g>
<g>
</g>
<g>
</g>
<g>
</g>
<g>
</g>
<g>
</g>
<g>
</g>
<g>
</g>
<g>
</g>
</svg>
