<?xml version="1.0" encoding="utf-8"?>
<!-- Generator: Adobe Illustrator 27.9.0, SVG Export Plug-In . SVG Version: 6.00 Build 0)  -->
<svg version="1.1" id="Capa_2_00000017482301720593098680000014561713063774619578_"
	 xmlns="http://www.w3.org/2000/svg" xmlns:xlink="http://www.w3.org/1999/xlink" x="0px" y="0px" viewBox="0 0 271.7 114.7"
	 style="enable-background:new 0 0 271.7 114.7;" xml:space="preserve">
<style type="text/css">
	.st0{fill:#FFFFFF;}
</style>
<g id="Capa_1-2">
	<g>
		<path class="st0" d="M0,0v114.7h271.7V0H0z M269.4,112.3H2.3V2.3h267.1V112.3z"/>
		<path class="st0" d="M34.5,49.7h4.9c2.7,0,5.1-0.5,7-1.4c2-0.9,3.5-2.3,4.6-4c1.1-1.7,1.7-3.8,1.7-6.2s-0.6-4.4-1.7-6.1
			c-1.1-1.7-2.7-3-4.6-4c-2-0.9-4.3-1.4-7-1.4H28.2v37.1h6.2V49.7L34.5,49.7z M39.4,32.2c2.2,0,3.9,0.5,5.2,1.5c1.3,1,2,2.5,2,4.5
			s-0.7,3.5-2,4.5c-1.3,1-3,1.5-5.2,1.5h-4.9v-12H39.4z"/>
		<path class="st0" d="M58.2,63.8l4.2-9.5h13.7l4.3,9.5h7.1L69.3,24.6L51.2,63.8H58.2z M74.4,48.9H64.3l5-11.8L74.4,48.9L74.4,48.9z
			"/>
		<path class="st0" d="M103.7,59c-1.4,0-2.6-0.3-3.8-0.9s-2.2-1.4-3.1-2.5c-0.9-1.1-1.8-2.3-2.6-3.8l-4.7,3.3
			c0.8,1.7,1.9,3.3,3.3,4.7c1.4,1.5,3,2.6,4.9,3.5c1.8,0.9,3.9,1.3,6,1.3c1.6,0,3.1-0.3,4.6-0.8c1.5-0.5,2.8-1.2,3.9-2.2
			c1.2-0.9,2.1-2.1,2.8-3.5s1-2.9,1-4.7c0-1.6-0.3-3-0.8-4.3s-1.3-2.3-2.2-3.2c-0.9-0.9-1.9-1.6-3-2.2s-2.2-1.1-3.4-1.5
			c-2-0.7-3.6-1.4-4.8-2.1c-1.2-0.7-2.2-1.4-2.7-2.2c-0.6-0.8-0.9-1.6-0.9-2.6c0-1.1,0.4-2,1.2-2.8c0.8-0.8,2.1-1.2,3.8-1.2
			c1.2,0,2.3,0.2,3.3,0.7s1.8,1.1,2.5,1.9c0.7,0.8,1.3,1.7,1.8,2.6l5-2.9c-0.6-1.3-1.5-2.6-2.6-3.8s-2.5-2.2-4.1-3s-3.5-1.2-5.7-1.2
			s-4.2,0.4-6,1.3s-3.1,2-4.2,3.5c-1,1.5-1.5,3.2-1.5,5.2c0,1.7,0.3,3.2,1,4.4c0.7,1.2,1.5,2.2,2.5,3.1c1,0.8,2.1,1.5,3.2,2.1
			c1.1,0.5,2.2,1,3.1,1.3c1.6,0.6,2.9,1.1,4.1,1.7s2.1,1.3,2.8,2.1c0.7,0.8,1,1.9,1,3.3c0,1.5-0.5,2.7-1.6,3.6
			C106.8,58.5,105.4,59,103.7,59L103.7,59z"/>
		<path class="st0" d="M134.4,59c-1.4,0-2.6-0.3-3.8-0.9s-2.2-1.4-3.1-2.5c-0.9-1.1-1.8-2.3-2.6-3.8l-4.7,3.3
			c0.8,1.7,1.9,3.3,3.3,4.7c1.4,1.5,3,2.6,4.9,3.5c1.9,0.9,3.9,1.3,6,1.3c1.6,0,3.1-0.3,4.6-0.8c1.5-0.5,2.8-1.2,3.9-2.2
			c1.2-0.9,2.1-2.1,2.8-3.5s1-2.9,1-4.7c0-1.6-0.3-3-0.9-4.3s-1.3-2.3-2.2-3.2s-1.9-1.6-3-2.2s-2.2-1.1-3.4-1.5
			c-2-0.7-3.6-1.4-4.8-2.1c-1.2-0.7-2.1-1.4-2.7-2.2c-0.6-0.8-0.9-1.6-0.9-2.6c0-1.1,0.4-2,1.2-2.8c0.8-0.8,2.1-1.2,3.8-1.2
			c1.2,0,2.3,0.2,3.3,0.7c0.9,0.5,1.8,1.1,2.5,1.9c0.7,0.8,1.3,1.7,1.8,2.6l5-2.9c-0.6-1.3-1.5-2.6-2.6-3.8s-2.5-2.2-4.1-3
			S136.2,26,134,26s-4.2,0.4-6,1.3s-3.1,2-4.2,3.5c-1,1.5-1.5,3.2-1.5,5.2c0,1.7,0.3,3.2,1,4.4c0.7,1.2,1.5,2.2,2.5,3.1
			c1,0.8,2.1,1.5,3.2,2.1s2.1,1,3.1,1.3c1.6,0.6,2.9,1.1,4.1,1.7c1.2,0.6,2.1,1.3,2.8,2.1c0.6,0.8,1,1.9,1,3.3
			c0,1.5-0.5,2.7-1.6,3.6C137.4,58.5,136.1,59,134.4,59L134.4,59z"/>
		<rect x="153.1" y="26.7" class="st0" width="6.4" height="37.1"/>
		<path class="st0" d="M171,59.1c1.7,1.7,3.8,3.1,6.1,4c2.4,1,4.9,1.5,7.7,1.5s5.4-0.5,7.7-1.5s4.4-2.3,6.1-4s3.1-3.8,4-6.2
			c0.9-2.4,1.4-4.9,1.4-7.7s-0.5-5.3-1.4-7.7s-2.3-4.3-4.1-6.1c-1.8-1.7-3.8-3.1-6.1-4c-2.3-1-4.9-1.5-7.7-1.5s-5.3,0.5-7.6,1.5
			s-4.4,2.3-6.1,4c-1.8,1.7-3.1,3.7-4.1,6.1s-1.4,4.9-1.4,7.7s0.5,5.3,1.4,7.7S169.3,57.3,171,59.1z M173.8,38.4
			c1.1-2,2.6-3.6,4.5-4.7c1.9-1.1,4.1-1.7,6.5-1.7s4.7,0.6,6.6,1.7s3.4,2.7,4.4,4.7s1.6,4.3,1.6,6.8s-0.5,4.8-1.6,6.8
			c-1.1,2-2.6,3.5-4.4,4.7c-1.9,1.2-4.1,1.7-6.6,1.7s-4.6-0.6-6.5-1.7s-3.4-2.7-4.5-4.7c-1.1-2-1.6-4.2-1.6-6.8
			S172.7,40.4,173.8,38.4z"/>
		<polygon class="st0" points="216.4,38.9 243.5,65.6 243.5,26.7 237.3,26.7 237.3,51.6 210.2,24.8 210.2,63.8 216.4,63.8 		"/>
		<path class="st0" d="M33.8,80.9c0.5-0.3,1-0.6,1.3-1.1c0.3-0.5,0.5-1.1,0.5-1.7s-0.2-1.2-0.5-1.7c-0.3-0.5-0.8-0.8-1.3-1.1
			c-0.5-0.3-1.2-0.4-2-0.4h-3.2v10.4h1.8v-3.9h1.1l2.6,3.9h2.1l-3-4.2C33.4,81.1,33.6,81,33.8,80.9L33.8,80.9z M30.3,76.4h1.4
			c0.4,0,0.8,0.1,1.1,0.2c0.3,0.1,0.5,0.3,0.7,0.6c0.2,0.3,0.2,0.6,0.2,0.9s-0.1,0.7-0.2,0.9s-0.4,0.5-0.7,0.6s-0.7,0.2-1,0.2h-1.4
			L30.3,76.4L30.3,76.4z"/>
		<polygon class="st0" points="43.3,74.9 42.2,74.9 42.2,85.3 43.3,85.3 43.9,85.3 48.5,85.3 48.5,83.7 43.9,83.7 43.9,80.5 
			48.2,80.5 48.2,79 43.9,79 43.9,76.4 48.5,76.4 48.5,74.9 43.9,74.9 		"/>
		<path class="st0" d="M61.4,80.3c-0.2-0.2-0.5-0.5-0.8-0.6c-0.3-0.2-0.6-0.3-0.9-0.4c-0.5-0.2-1-0.4-1.3-0.6s-0.6-0.4-0.8-0.6
			s-0.2-0.4-0.2-0.7c0-0.3,0.1-0.6,0.3-0.8s0.6-0.3,1.1-0.3c0.3,0,0.7,0.1,0.9,0.2s0.5,0.3,0.7,0.5c0.2,0.2,0.4,0.5,0.5,0.7l1.4-0.8
			c-0.2-0.4-0.4-0.7-0.7-1.1c-0.3-0.3-0.7-0.6-1.2-0.8c-0.5-0.2-1-0.3-1.6-0.3s-1.2,0.1-1.7,0.4s-0.9,0.6-1.2,1
			c-0.3,0.4-0.4,0.9-0.4,1.5c0,0.5,0.1,0.9,0.3,1.2s0.4,0.6,0.7,0.9c0.3,0.2,0.6,0.4,0.9,0.6s0.6,0.3,0.9,0.4
			c0.4,0.2,0.8,0.3,1.2,0.5s0.6,0.4,0.8,0.6c0.2,0.2,0.3,0.5,0.3,0.9c0,0.4-0.2,0.8-0.4,1c-0.3,0.3-0.7,0.4-1.2,0.4
			c-0.4,0-0.7-0.1-1.1-0.2s-0.6-0.4-0.9-0.7s-0.5-0.7-0.7-1.1l-1.3,0.9c0.2,0.5,0.5,0.9,0.9,1.3c0.4,0.4,0.8,0.7,1.4,1
			s1.1,0.4,1.7,0.4c0.5,0,0.9-0.1,1.3-0.2s0.8-0.3,1.1-0.6s0.6-0.6,0.8-1c0.2-0.4,0.3-0.8,0.3-1.3c0-0.5-0.1-0.8-0.2-1.2
			C61.8,80.9,61.6,80.6,61.4,80.3L61.4,80.3z"/>
		<polygon class="st0" points="67.7,76.5 70.5,76.5 70.5,85.3 72.2,85.3 72.2,76.5 75,76.5 75,74.9 67.7,74.9 		"/>
		<path class="st0" d="M78.4,85.3h2l1.2-2.7h3.8l1.2,2.7h2l-5.1-11L78.4,85.3L78.4,85.3z M84.9,81.1H82l1.4-3.3L84.9,81.1z"/>
		<path class="st0" d="M100.2,81.8c0,0.6-0.2,1.2-0.5,1.5c-0.3,0.4-0.8,0.6-1.5,0.6s-1.2-0.2-1.5-0.6c-0.3-0.4-0.5-0.9-0.5-1.5v-6.9
			h-1.8v7c0,0.6,0.1,1.1,0.3,1.5c0.2,0.4,0.4,0.8,0.8,1.2s0.7,0.6,1.2,0.7c0.5,0.2,1,0.2,1.5,0.2s1.1-0.1,1.5-0.2s0.9-0.4,1.2-0.7
			s0.6-0.7,0.8-1.2c0.2-0.4,0.3-1,0.3-1.5v-7h-1.8C100.2,74.9,100.2,81.8,100.2,81.8z"/>
		<path class="st0" d="M114.2,80.9c0.6-0.3,1-0.6,1.3-1.1c0.3-0.5,0.5-1.1,0.5-1.7s-0.2-1.2-0.5-1.7c-0.3-0.5-0.8-0.8-1.3-1.1
			c-0.6-0.3-1.2-0.4-2-0.4H109v10.4h1.8v-3.9h1.1l2.6,3.9h2.1l-3-4.2C113.8,81.1,114,81,114.2,80.9L114.2,80.9z M110.7,76.4h1.4
			c0.4,0,0.8,0.1,1.1,0.2c0.3,0.1,0.5,0.3,0.7,0.6c0.2,0.3,0.2,0.6,0.2,0.9s-0.1,0.7-0.2,0.9s-0.4,0.5-0.7,0.6
			c-0.3,0.1-0.7,0.2-1.1,0.2h-1.4V76.4L110.7,76.4z"/>
		<path class="st0" d="M121.4,85.3h2l1.2-2.7h3.8l1.2,2.7h2l-5.1-11L121.4,85.3L121.4,85.3z M127.9,81.1h-2.8l1.4-3.3L127.9,81.1z"
			/>
		<polygon class="st0" points="145.1,81.9 137.6,74.4 137.6,85.3 139.3,85.3 139.3,78.3 146.9,85.8 146.9,74.9 145.1,74.9 		"/>
		<polygon class="st0" points="155.6,85.3 157.4,85.3 157.4,76.5 160.1,76.5 160.1,74.9 152.9,74.9 152.9,76.5 155.6,76.5 		"/>
		<path class="st0" d="M180.3,81.3h3.2c-0.1,0.3-0.2,0.7-0.4,1c-0.2,0.3-0.4,0.6-0.7,0.8s-0.6,0.4-0.9,0.6c-0.4,0.1-0.8,0.2-1.2,0.2
			c-0.7,0-1.3-0.2-1.8-0.5c-0.6-0.3-1-0.8-1.3-1.3c-0.3-0.6-0.5-1.2-0.5-2s0.2-1.4,0.5-2c0.3-0.6,0.8-1,1.3-1.3
			c0.6-0.3,1.1-0.5,1.8-0.5c0.7,0,1.3,0.2,1.9,0.4c0.5,0.3,0.9,0.7,1.2,1.2l1.4-0.9c-0.3-0.5-0.7-0.9-1.1-1.2
			c-0.4-0.3-0.9-0.6-1.5-0.8c-0.6-0.2-1.2-0.3-1.9-0.3c-0.8,0-1.5,0.1-2.2,0.4c-0.7,0.3-1.2,0.6-1.7,1.1c-0.5,0.5-0.9,1.1-1.1,1.7
			c-0.3,0.7-0.4,1.4-0.4,2.2s0.1,1.5,0.4,2.2c0.3,0.7,0.6,1.2,1.1,1.7c0.5,0.5,1.1,0.9,1.7,1.1c0.7,0.3,1.4,0.4,2.2,0.4
			c0.8,0,1.6-0.2,2.2-0.4c0.6-0.3,1.2-0.7,1.6-1.2s0.8-1.1,1-1.8s0.3-1.4,0.3-2.2h-5L180.3,81.3L180.3,81.3z"/>
		<path class="st0" d="M197,80.9c0.6-0.3,1-0.6,1.3-1.1s0.5-1.1,0.5-1.7s-0.2-1.2-0.5-1.7c-0.3-0.5-0.8-0.8-1.3-1.1
			c-0.6-0.3-1.2-0.4-2-0.4h-3.2v10.4h1.8v-3.9h1.1l2.6,3.9h2.1l-3-4.2C196.6,81.1,196.8,81,197,80.9L197,80.9z M193.6,76.4h1.4
			c0.4,0,0.8,0.1,1.1,0.2c0.3,0.1,0.5,0.3,0.7,0.6c0.2,0.3,0.2,0.6,0.2,0.9s-0.1,0.7-0.2,0.9s-0.4,0.5-0.7,0.6s-0.6,0.2-1.1,0.2
			h-1.4V76.4L193.6,76.4z"/>
		<path class="st0" d="M206.4,84c0.5,0.5,1.1,0.9,1.7,1.1s1.4,0.4,2.1,0.4s1.5-0.1,2.2-0.4c0.6-0.3,1.2-0.7,1.7-1.1s0.9-1.1,1.1-1.7
			s0.4-1.4,0.4-2.2s-0.1-1.5-0.4-2.2c-0.3-0.7-0.6-1.2-1.1-1.7c-0.5-0.5-1.1-0.9-1.7-1.1c-0.6-0.3-1.4-0.4-2.1-0.4s-1.5,0.1-2.1,0.4
			c-0.7,0.3-1.2,0.7-1.7,1.1c-0.5,0.5-0.9,1.1-1.1,1.7c-0.3,0.7-0.4,1.4-0.4,2.2s0.1,1.5,0.4,2.2C205.5,82.9,205.9,83.5,206.4,84
			L206.4,84z M207.2,78.2c0.3-0.6,0.7-1,1.2-1.3c0.5-0.3,1.1-0.5,1.8-0.5s1.3,0.2,1.9,0.5s0.9,0.8,1.2,1.3s0.4,1.2,0.4,1.9
			s-0.1,1.3-0.4,1.9s-0.7,1-1.2,1.3s-1.1,0.5-1.8,0.5s-1.3-0.2-1.8-0.5c-0.5-0.3-0.9-0.8-1.2-1.3c-0.3-0.6-0.5-1.2-0.5-1.9
			S206.9,78.7,207.2,78.2L207.2,78.2z"/>
		<path class="st0" d="M227.9,81.8c0,0.6-0.2,1.2-0.5,1.5c-0.3,0.4-0.9,0.6-1.5,0.6s-1.2-0.2-1.5-0.6c-0.4-0.4-0.5-0.9-0.5-1.5v-6.9
			H222v7c0,0.6,0.1,1.1,0.3,1.5c0.2,0.4,0.4,0.8,0.8,1.2s0.7,0.6,1.2,0.7s1,0.2,1.5,0.2s1.1-0.1,1.5-0.2c0.5-0.2,0.9-0.4,1.2-0.7
			c0.3-0.3,0.6-0.7,0.8-1.2c0.2-0.4,0.3-1,0.3-1.5v-7h-1.8V81.8z"/>
		<path class="st0" d="M241.7,75.3c-0.6-0.3-1.2-0.4-2-0.4h-3.1v10.4h1.8v-3.9h1.4c0.8,0,1.4-0.1,2-0.4s1-0.6,1.3-1.1
			c0.3-0.5,0.5-1.1,0.5-1.7s-0.2-1.2-0.5-1.7C242.7,75.9,242.2,75.6,241.7,75.3L241.7,75.3z M241.2,79.4c-0.4,0.3-0.9,0.4-1.4,0.4
			h-1.4v-3.4h1.4c0.6,0,1.1,0.1,1.4,0.4c0.4,0.3,0.6,0.7,0.6,1.2S241.6,79.1,241.2,79.4L241.2,79.4z"/>
	</g>
</g>
</svg>
