<svg xmlns="http://www.w3.org/2000/svg" viewBox="0 0 444.74 207.98"><defs><style>.cls-1{fill:#fff;}</style></defs><title>Rosato-horizontalblanco</title><g id="Capa_2" data-name="Capa 2"><g id="Capa_1-2" data-name="Capa 1"><path class="cls-1" d="M266.12,125.37c-5.25,4.86-10.45,9.76-15.75,14.55a28.31,28.31,0,0,1-4.84,3.51c-7,4-12.53,1-13-7.13-.08-1.26.33-2.63-1.2-4.27-5.4,6.65-10.68,13.17-16,19.66-.84,1,0,1.83.21,2.75,2.06,10.86-8.37,22.57-19.5,21.93-3.79-.22-5.34-3.38-3.31-7.33,2.69-5.24,6.69-9.57,11-13.47,3.08-2.8,3.08-5.09,1-8.47-4.61-7.48-9.42-15-10.1-24.44-5.8,2.09-11.41,3.28-14.83,9.53A26.47,26.47,0,0,1,162.64,145c-10.06,2.56-16.48-2.84-15.33-13.15a43.1,43.1,0,0,0-.15-12.57c-2-11.51,14.93-27,26.43-24.87,9.2,1.7,14.54,8.94,13.53,18.51-.31,2.94-1,5.83-1.44,8.77,8-.23,7.92-.37,10-7.35,3.76-12.65,12.21-21.48,23.53-27.77a14.48,14.48,0,0,1,5.2-1.52c8.13-1,10.54,1.88,8.79,10.11-.26-.16-.69-.28-.75-.5-2.27-7.64-4.61-8.49-11.52-3.91a51,51,0,0,0-14.65,14.81c-5.88,9-6.66,18.25-1.53,27.8,2.27,4.23,4.8,8.33,7.58,13.11,8.66-10.94,20.88-18.16,26.87-31.23a36.21,36.21,0,0,1,16.38-17.6c7.26-3.71,14.36-2,18.37,4.34.53.83,1.16,1.66.5,2.75-1.18.65-1.8-.39-2.5-.95-6.35-5.08-10.31-5.29-16.19.14-9.77,9-15.46,20.13-16.21,34.19,4.43-1.86,7.26-4.89,10.26-7.62,4.93-4.48,9.66-9.17,14.56-13.69a22.15,22.15,0,0,1,4.8-3.51c3.78-1.94,6.51-.35,6.87,3.91.51,5.94-1.86,11.23-4.15,16.68.68,0,1.4.28,1.59.07,5.52-6.43,13.08-11.19,15.7-20,4-13.49,8.3-26.89,12.65-40.89-11,0-21.64.08-32.23,0a211.72,211.72,0,0,1-31.18-2.21c.27-2.45,1.79-1.8,2.71-1.85,19.46-1,38.92-2.17,58.39-2.85,3.79-.14,5.23-1.45,6-4.77a136.06,136.06,0,0,1,4.55-15.75,36.17,36.17,0,0,1-.24,15.74c-.73,3.31-.22,4.76,3.7,4.53,7.14-.41,14.32-.36,21.48-.34,2.31,0,3.53-.47,4.12-3a153.61,153.61,0,0,1,5.06-17.13,33.23,33.23,0,0,1-.16,15c-1.25,4.58.13,5.59,4.72,5.45,23.81-.74,47.62-.62,71.24,3.18,3.24.52,6.41,1.42,10.42,2.33-3,1.8-5.48,1.31-7.85,1.27-25.62-.41-51.24-.64-76.86.26-2.24.08-4.1,0-4.86,2.88-5.5,20.86-11.24,41.65-16.61,62.54-1,3.93-2.16,8.07-1.18,13.26,12.66-8.56,21.07-21,32.27-30.49.92,1.75-.16,2.82-.84,3.87-6.65,10.2-14,19.88-22.94,28.19a23.29,23.29,0,0,1-4.34,3.33c-5.8,3.21-10.71.6-11.37-6-.58-5.9,1-11.55,2.3-17.22.28-1.29,1-2.5.1-4.35C315,132.9,312,136.78,309,140.65a85.85,85.85,0,0,1-13.79,14.4c-2.79,2.21-5.87,4-9.61,2-3.49-1.83-3.77-5.09-3.91-8.54-.2-5.25,1.25-10.22,2.4-15.23a10.61,10.61,0,0,0,.38-5.54c-2.19,3.17-4.07,6-6.05,8.73a54.8,54.8,0,0,1-4,5.09c-2.31,2.53-5.15,5.11-8.62,3.18-3.19-1.76-2-5.25-1.24-8.16.86-3.37,1.78-6.73,2.68-10.09a1.87,1.87,0,0,0,.28-2.14Zm-110.92-13c-.11.43-.45,1-.28,1.25.42.52.76.1,1-.38.45-.29,1.29-.46.71-1.21S155.59,111.92,155.2,112.34Zm17.87,18.11c-6.4-1.47-13.14,1.29-19.44-1.6-.89-.41-1.49.47-1.59,1.37a10.28,10.28,0,0,0,2,7.95c1.8,2.15,4.12,1.94,6.78,1.09,5.14-1.66,8.64-5.34,12.3-8.89l-.09-.14ZM160.61,110l.84.6c-1.9,2.93-3.7,5.92-5.72,8.76-1.64,2.31-.91,3.67,1.45,4.51,6.2,2.21,12.45,1.51,18.7.2,1.14-.24,1.51-1.14,1.91-2.08a23.3,23.3,0,0,0,2-13.62,7.56,7.56,0,0,0-6-6.53c-5.93-1.37-14.83,3.66-17.07,9.77C158.38,112,159.14,110,160.61,110Zm128.08,41.1c3.63-1.13,5.63-3.15,7.61-5.12,5.52-5.52,10.69-11.43,16.51-16.6a38.49,38.49,0,0,0,11.94-19.94c3.17-12.11,7.3-24,11.13-36.29-8.81,0-17.12.12-25.42-.07-2.72-.07-3.17,1.27-3.75,3.42-4.11,15.18-8.48,30.3-12.53,45.5C291.68,131.34,288.66,140.67,288.69,151.05ZM232.36,131.4c-.09-.06-.23-.19-.28-.16s-.21.2-.31.31l.59.17Z"/><path class="cls-1" d="M200.05,203.86c-27.22,3.47-50.59-6.17-72.36-21.22-12-8.27-22.59-18.1-32.88-28.31a198,198,0,0,0-21.74-18.86c-6.32,23.95-12.94,47.3-16.84,72.51-2.19-4.29-1.28-7.56-1-10.75,1.51-21,6.42-41.35,11-61.77,1.32-5.9-.11-7.6-6.15-7.3-5.32.27-10.64.73-15.78-1.25a17.65,17.65,0,0,1-10.84-11c-.82-2.3-1.31-4.61.52-6.57s4.27-1.79,6.56-1.14c7.14,2,13.28,6,19.23,10.27,1.67,1.21,3.19,2.11,5.46,1.48,3.19-.88,5.23-1.94,6.14-5.86C78,85.34,85.72,56.78,90.13,27.5c.49-3.27.51-6.61.76-10.1C83.71,19.12,78,22,74,28.25,69.09,35.77,63.48,42.82,58.13,50c-1,1.34-1.62,3.42-4.83,2.76L66.48,29.52c.27-1.18.23-2-1.29-1.1-18.55,8.88-36,19.3-50.46,34.25-4,4.19-8,8.46-10.06,14.1-2.55,7-.92,11.78,5.49,15.61C14.52,95,19.37,96.11,24.27,97c1.91.36,3.78.67,5.22,2.89-3.16-.52-6.33-1-9.48-1.58-20.77-3.89-25.9-17.21-12.9-34,8.45-10.91,19.32-19.22,30.56-27a223.26,223.26,0,0,1,33.85-19,20.5,20.5,0,0,0,7.74-5.93C84.49,5.81,87,5.22,94.94,7.9c1.78.6,3.23-.42,4.73-.93,13.48-4.58,27.2-7.53,41.55-6.88A43.13,43.13,0,0,1,159.86,5C172.23,11.6,176.52,23.75,172,38.79c-3.7,12.3-11.49,22.12-19.88,31.34-20.64,22.64-44.81,40.55-73.13,52.6-4.85,2.06-5.41,5.9-1.38,9.24,14.89,12.33,27.78,26.84,42.64,39.2,16.54,13.76,34.54,24.74,55.94,29.28a108.68,108.68,0,0,0,23.8,1.92ZM78.43,115c2.25-1,3.9-1.71,5.49-2.49,24.23-11.84,45-28.3,63.05-48.12,8-8.75,15.06-18.28,18.5-29.84,4.05-13.6-2.11-23.61-16-26.74-15.87-3.58-30.92.29-46,4.73-4.79,1.4-7,3.35-5.91,8.5a16.06,16.06,0,0,1-.21,5.47A534.52,534.52,0,0,1,86.2,83.66C83.65,93.91,81.11,104.16,78.43,115Zm-38.86-.41c3.49,6.33,7.93,8.33,13.9,6.64C49.18,118.69,45.31,115.66,39.57,114.58Z"/><path class="cls-1" d="M404.88,169.93c-21.22,1-39.08-19.8-39.48-35.49a6.14,6.14,0,0,0-1.47-4.54c-5.75-6.16-3.35-18.4,4.43-22.05a20.51,20.51,0,0,0,7.58-6.19c7.06-9,24.1-13.84,34.76-10.22,3.41,1.15,7.09.92,10.52,2.52,13.68,6.38,21.7,17.14,23.26,31.84,1.64,15.33-4.46,28-16.77,37.4C422.09,167.5,413,169.9,404.88,169.93Zm-35.29-41.4a41.34,41.34,0,0,0,3.2,17.09,32.53,32.53,0,0,0,22.52,19.94c14.6,3.87,28.59.27,39.31-11.62a16.14,16.14,0,0,0,4.46-12.77,27.56,27.56,0,0,1,.82-11.37c2.32-7,.53-13-3.69-18.59-9.74-12.94-23.09-20-43.54-14.17C382.08,100,371,113.07,369.59,128.53Z"/><path class="cls-1" d="M200.05,203.86l-.06-1.49,4.79-.42.23.83Z"/><path class="cls-1" d="M160.61,110c.14-.53.49-.87,1-.57.14.09-.09.76-.15,1.17Z"/></g></g></svg>