<?xml version="1.0" encoding="utf-8"?>
<!-- Generator: Adobe Illustrator 27.9.0, SVG Export Plug-In . SVG Version: 6.00 Build 0)  -->
<svg version="1.1" id="Capa_2_00000137842534284533946690000016906421563953670812_"
	 xmlns="http://www.w3.org/2000/svg" xmlns:xlink="http://www.w3.org/1999/xlink" x="0px" y="0px" viewBox="0 0 219.5 116.9"
	 style="enable-background:new 0 0 219.5 116.9;" xml:space="preserve">
<style type="text/css">
	.st0{fill:#FFFFFF;}
</style>
<g id="Layer_0_Image">
	<g>
		<path class="st0" d="M110.5,116.8c-34.8,0-69.6,0-104.3,0c-0.7,0-1.4,0.2-2-0.1c-0.7-0.2-1.2-0.8-1.7-1.2c0.6-0.4,1.2-0.8,1.9-1.1
			c0.3-0.2,0.8,0,1.1,0c70.1,0,140.1,0,210.1,0c0.7,0,1.4-0.1,2,0.1c0.5,0.2,0.8,0.8,1.2,1.2c-0.4,0.4-0.8,1-1.3,1.1
			c-0.7,0.2-1.5,0.1-2.3,0.1C180.3,116.8,145.4,116.8,110.5,116.8L110.5,116.8z"/>
		<path class="st0" d="M182.5,109.9c-2-0.1-3.5,0.1-4.6-0.4c-1.6-0.7-3.8-1.8-4.2-3.2c-0.5-1.7-0.2-4.6,0.9-5.7
			c5.4-5,12-7.2,19.4-6.8c0.7,0,1.9,1.1,1.9,1.5c-0.1,0.8-0.9,2.1-1.5,2.2c-3.2,0.7-6.6,0.9-9.9,1.5c-1.7,0.3-3.6,0.5-4.8,1.5
			c-1.2,0.9-1.6,2.7-2.4,4.1c1.4,0.7,2.9,2.2,4.3,2.1c3.5-0.3,6.9-1.2,10.3-2.1c3.9-1,7.7-2.3,11.5-3.4c5.9-1.8,11.4,2.2,14.6,5.8
			c0.6,0.7,0.8,2.9,0.2,3.4c-1.2,1.1-3.1,1.7-4.6,0c-0.7-0.8-1.1-1.8-1.6-2.7c-1.9-3.3-3.3-4.1-7-3.1c-5.4,1.3-10.6,3-16,4.4
			C186.6,109.4,184.2,109.6,182.5,109.9L182.5,109.9z"/>
		<path class="st0" d="M95.8,40.2c-8.9,2.2-17.7,5.2-27,5c-1.3,0-2.7-0.2-4-0.6c-4-1-5.3-2.7-4.6-6.7c0.7-3.9,1.8-7.8,2.7-11.7
			c0.9-4.4,1.6-8.8,2.5-13.2c0.5-2.5,0.8-5.1,1.8-7.5c1.2-2.8,3.3-3.9,7-3.9c-1.4,4.6-2.6,9.1-4,13.4c-1.8,5.3-3.9,10.6-5.8,15.8
			c-0.3,0.9-0.6,1.8-0.6,2.8c-0.2,5.4,0.6,6.4,5.8,7.7c5.6,1.3,11,0,16.4-1c3.2-0.6,6.6-0.8,9.8-1.2C95.7,39.5,95.8,39.8,95.8,40.2
			L95.8,40.2z"/>
		<path class="st0" d="M138.1,92.2c-0.1-1.8-0.4-3.3-0.4-4.8c0-2.8,0-5.7,0.2-8.5c0.2-2.5,1.9-3.5,4.4-3.9c2,5.8-0.1,11-1.4,16.7
			c1.1,0.1,2.3,0.3,3.5,0.3c5.7,0.1,11.4,0.1,17.2,0.1c1,0,1.9,0.4,2.9,0.6l-0.1,1.1h-22.2c4.4,10.6,12.1,14.2,22.6,13.5
			c0,0.3-0.1,0.6-0.1,1c-0.9,0.4-1.8,1.1-2.8,1.3c-4.9,1.2-9.6,0-13.2-3.1c-3.6-3.1-6.5-6.9-9.3-10.7c-1-1.4-1.9-2.1-3.4-1.7
			c-2.6,0.6-5.1,1.5-7.7,2.1c-1.2,0.3-2.9,1.3-3.4-1c-0.5-2,0.9-2.9,2.5-3.1c2.1-0.3,4.4-0.3,6.5-0.3
			C135.2,91.8,136.5,92,138.1,92.2L138.1,92.2z"/>
		<path class="st0" d="M5.1,45.8c3-2.6,6.3-5,9.1-7.8c3.4-3.4,6.5-6.9,9.5-10.6c2.8-3.5,2.8-7.6,0.1-10.9c-2.5-3.1-5.7-6-9.1-7.9
			c-3.6-2-7.8-2.8-11.7-4.1C1.9,4.1,1,3.7,0,3.3c1-2.9,3-3.7,5.5-3.2c8.1,1.6,15.1,5.6,20.5,11.6c3,3.3,4,7.9,2.1,12.1
			c-4.2,9.9-11.4,17.2-21.1,22c-0.6,0.3-1.2,0.3-1.9,0.5C5.2,46.2,5.2,46,5.1,45.8L5.1,45.8z"/>
		<path class="st0" d="M40.7,104.4c-4.2,0.8-8.3,1.8-12.5,2.3c-5.2,0.7-10.4,1.1-15.6,1.6c-1.1,0.1-2.3-0.1-3.4-0.2
			c-6.2-0.8-7.3-2.5-5.7-8.4c0.4-1.5,0.9-2.9,1.5-4.3c1.8-4.5,3.3-9.1,3.7-14c0.4-5.5,3.5-8.1,9.1-8c-1.1,3-2,5.8-3.2,8.5
			c-2.1,4.7-4.5,9.2-6.6,13.9c-0.7,1.5-0.9,3.2-1.1,4.9c-0.2,2.6,1.3,3.7,3.7,4.2c6.4,1.5,12.7,0.6,19.1-0.3
			c3.7-0.5,7.4-0.8,11.1-1.2C40.7,103.8,40.7,104.1,40.7,104.4L40.7,104.4z"/>
		<path class="st0" d="M44.3,21.5c4-0.1,7.5,1.1,9.7,4.6c2.2,3.5,1.8,7.1-0.3,10.5c-3.8,6.3-12.2,10.2-18.6,8.7
			c-4.8-1.1-6.9-4.9-5.4-9.5c1.6-4.8,6.8-8.6,11.8-8.4c1,0,2.2,1.1,2.8,2.1c0.2,0.4-0.8,2.1-1.6,2.5c-2,1-4.4,1.4-6.3,2.5
			c-1.1,0.6-2.5,2.3-2.3,3.3c0.2,1.3,1.6,2.9,2.9,3.3c5.4,2,14-2.3,15.9-7.8c1.1-3.1-0.8-7-4.4-9c-1.5-0.8-3-1.5-4.5-2.3
			C44.1,22,44.2,21.7,44.3,21.5L44.3,21.5z"/>
		<path class="st0" d="M116.9,21.5c4-0.1,7.5,1.2,9.6,4.8c2.1,3.5,1.6,7.1-0.5,10.5c-4,6.4-12.4,10.1-18.9,8.5
			c-4.1-1-6.1-4.4-5.2-8.5c1.2-5.3,6.7-9.6,12.2-9.4c1,0,2.2,1.2,2.7,2.2c0.2,0.4-0.8,2-1.7,2.4c-2,1-4.4,1.4-6.3,2.5
			c-1.1,0.6-2.4,2.3-2.3,3.3c0.2,1.3,1.6,2.9,2.9,3.3c5.7,2.1,14.3-2.5,16-8.3c0.9-2.9-1.2-6.7-4.8-8.5c-1.4-0.7-2.8-1.4-4.2-2.1
			C116.7,22,116.8,21.8,116.9,21.5L116.9,21.5z"/>
		<path class="st0" d="M199,45.9c-5.6-0.2-11.1-1-15.6-4.8c-3.5-3-3.9-7.6-0.9-11.9c2.8-4.1,6.7-7,11.4-8.6c0.9-0.3,1.9-0.4,2.8-0.3
			c3.3,0.2,4.5,2.2,2.6,4.9c-2,2.8-4.4,5.4-6.9,7.8c-1.1,1-2.8,1.3-4.2,2c-0.3-0.3-0.5-0.6-0.8-0.8c2.2-2.9,4.4-5.8,6.8-9
			c-4-0.6-8.5,2.1-10.2,5.5c-1.4,2.7-0.9,5.2,2.3,7.7c2.4,1.9,5.4,3.2,8.1,4.6c1.6,0.8,3.2,1.4,4.8,2.1
			C199.3,45.2,199.2,45.6,199,45.9L199,45.9z"/>
		<path class="st0" d="M140.9,44.6c-3.5-0.3-5.9-1.5-6.8-4.5c-0.6-1.8-0.9-3.7-1.1-5.6c-0.3-2.4,1.1-4,3.6-4.1c2-0.1,3.2,1.4,3,3.9
			c-0.1,1-0.5,1.9-0.4,2.8c0.1,1.2,0.2,2.8,1,3.3c0.7,0.5,2.4,0.1,3.4-0.4c3.2-1.5,6.1-3.6,9.4-4.8c5.2-2,10.6-3.8,16-5
			c2.3-0.5,5.1,0.3,7.6,0.8c0.8,0.2,1.4,1.2,2.1,1.9c-0.9,0.7-1.7,1.4-2.6,2c-0.3,0.2-1,0-1.4-0.2c-6.9-4-13.1-1.2-19.1,1.9
			c-4.1,2.1-8.1,4.7-12.1,7C142.4,44.1,141.5,44.4,140.9,44.6L140.9,44.6z"/>
		<path class="st0" d="M63.7,89.5c3.2-0.8,6.1-0.1,8.5,2c2.8,2.4,3.4,5.8,1.6,9c-3.4,6.2-13.6,10.3-20.4,8.3
			c-4.4-1.3-5.9-4.9-3.7-8.9c1.9-3.5,8-6.7,11.9-6.1c0.8,0.1,1.8,1.1,2.2,1.9c0.2,0.3-0.8,1.6-1.5,1.9c-2.1,0.9-4.4,1.3-6.5,2.2
			c-1,0.5-2.5,1.9-2.3,2.6c0.2,1.1,1.4,2.5,2.5,2.9c4.8,1.8,13.1-1.2,15.7-5.6c1.8-2.9,0.4-6.2-3.5-8.3
			C66.8,90.8,65.2,90.2,63.7,89.5L63.7,89.5z"/>
		<path class="st0" d="M208.1,26.6c1.6,1.2,2.8,2.1,3.9,3.1c2,1.7,4.2,3.3,6,5.2c2.5,2.7,2,6.8-1.1,8.6c-2,1.2-4.4,1.7-6.7,2.2
			c-0.6,0.1-1.5-1-2.3-1.5c0.6-0.7,1.1-1.8,1.8-2.1c1.6-0.7,3.3-0.7,4.9-1.3c2.7-1.1,3-2.7,0.8-4.7c-1.9-1.7-4-3.2-6.1-4.8
			c-0.8-0.6-1.7-1.3-2.4-2.1c-2.4-2.8-1.9-5.6,1.4-7.1c2-0.9,4.1-1.6,6.2-2.2c0.8-0.2,2.4,0.1,2.5,0.4c0.2,1,0.1,2.3-0.5,3
			c-0.8,0.8-2.1,1.2-3.2,1.7C211.9,25.5,210.3,25.9,208.1,26.6L208.1,26.6z"/>
		<path class="st0" d="M93.9,68c0.1,0.3,0.2,0.4,0.2,0.5c-5.2,7.3-5.2,15.5-4.4,23.9c0.5,4.9,0.7,9.9,0.8,14.8c0,0.9-1,1.9-1.5,2.8
			c-0.7-0.8-1.9-1.7-1.9-2.5c-0.1-3.6,0.2-7.2,0.1-10.9C87,91.5,86.7,86.2,86.5,81c-0.1-2.5-0.5-5-0.2-7.4
			C86.9,69.8,89.8,67.8,93.9,68L93.9,68z"/>
		<path class="st0" d="M6.2,33.5c-0.5-2.9-1.3-5.8-1.6-8.8c-0.5-4.5-0.8-8.9-1-13.4c0-0.8,0.8-1.6,1.2-2.3c0.6,0.6,1.7,1.1,1.8,1.7
			C7,17.9,7.3,25.1,7.6,32.3c0,0.4-0.4,0.8-0.7,1.1C6.7,33.5,6.5,33.5,6.2,33.5L6.2,33.5z"/>
		<path class="st0" d="M111.7,95.4c1.3,4.1,3,8,2.7,12.4c-0.1,0.7-1.5,1.8-2.3,1.9c-0.8,0-2.2-1.2-2.2-1.9c0-4.1,0.3-8.2,0.5-12.3
			C110.8,95.5,111.2,95.5,111.7,95.4L111.7,95.4z"/>
		<path class="st0" d="M109.3,84.1c1.2,0.7,2.4,1.4,3.8,2.2c-2.5,2.4-5.2,2.8-7,1.1c-1.5-1.4-2.3-3-1-5c1.4-2.1,4.6-3,7.8-1
			c-1.5,0.5-3,1.1-4.6,1.6C108.6,83.3,108.9,83.7,109.3,84.1L109.3,84.1z"/>
		<g>
			<path class="st0" d="M2,58.2h1.3c0.3,0,0.5,0,0.7-0.1s0.4-0.2,0.5-0.4c0.1-0.2,0.2-0.3,0.2-0.6c0-0.3-0.1-0.6-0.4-0.8
				S3.7,56,3.3,56h-1v5.9h1.2c0.3,0,0.6,0,0.8-0.2c0.2-0.1,0.4-0.2,0.6-0.5C5,61.1,5,60.9,5,60.6c0-0.2,0-0.4-0.1-0.6
				c-0.1-0.2-0.2-0.3-0.3-0.4c-0.2-0.1-0.3-0.2-0.5-0.2c-0.2,0-0.4-0.1-0.6-0.1H1.9v-0.8h1.6c0.4,0,0.8,0,1.1,0.1
				C5,58.7,5.3,58.8,5.6,59s0.5,0.4,0.6,0.7c0.2,0.3,0.2,0.6,0.2,1c0,0.5-0.1,1-0.4,1.3c-0.2,0.3-0.6,0.6-1,0.8s-0.9,0.2-1.5,0.2
				H0.9v-8.2h2.5c0.5,0,1,0.1,1.4,0.2s0.7,0.4,0.9,0.7C5.9,56.1,6,56.5,6,57c0,0.4-0.1,0.8-0.3,1s-0.5,0.5-0.9,0.7s-0.8,0.2-1.4,0.2
				H2L2,58.2L2,58.2z"/>
			<path class="st0" d="M13.9,54.9v5.4c0,0.5,0.1,0.9,0.4,1.2c0.3,0.3,0.7,0.5,1.2,0.5c0.5,0,0.9-0.2,1.2-0.5s0.4-0.7,0.4-1.2v-5.4
				h1.4v5.5c0,0.5-0.1,0.9-0.2,1.2c-0.1,0.3-0.4,0.7-0.6,0.9s-0.6,0.4-1,0.6c-0.4,0.1-0.8,0.2-1.2,0.2s-0.8-0.1-1.2-0.2
				s-0.7-0.3-0.9-0.6c-0.3-0.2-0.5-0.5-0.6-0.9s-0.2-0.8-0.2-1.2v-5.5H13.9L13.9,54.9z"/>
			<path class="st0" d="M24.2,54.9h5.7v1.3h-2.2v6.9h-1.4v-6.9h-2.2L24.2,54.9L24.2,54.9z"/>
			<path class="st0" d="M58,54.9l-2.8,4.7v3.5h-1.4v-3.4l-2.8-4.8h1.6l1.9,3.5l1.9-3.5L58,54.9L58,54.9z"/>
			<path class="st0" d="M62.9,57.3c0.2-0.5,0.5-1,0.9-1.3s0.8-0.7,1.4-0.9c0.5-0.2,1.1-0.3,1.7-0.3s1.2,0.1,1.7,0.3s1,0.5,1.3,0.9
				c0.4,0.4,0.7,0.8,0.9,1.3c0.2,0.5,0.3,1.1,0.3,1.7s-0.1,1.2-0.3,1.7c-0.2,0.5-0.5,1-0.9,1.4s-0.8,0.7-1.3,0.9
				c-0.5,0.2-1.1,0.3-1.7,0.3s-1.2-0.1-1.7-0.3c-0.5-0.2-1-0.5-1.3-0.9s-0.7-0.8-0.9-1.4c-0.2-0.5-0.3-1.1-0.3-1.7
				S62.7,57.8,62.9,57.3L62.9,57.3z M64.4,60.5c0.2,0.4,0.6,0.8,1,1s0.9,0.4,1.4,0.4s1-0.1,1.4-0.4s0.8-0.6,1-1
				c0.2-0.4,0.4-0.9,0.4-1.5s-0.1-1.1-0.3-1.5c-0.2-0.4-0.6-0.8-1-1c-0.4-0.2-0.9-0.4-1.5-0.4s-1,0.1-1.4,0.4c-0.4,0.2-0.8,0.6-1,1
				c-0.2,0.4-0.4,0.9-0.4,1.5S64.2,60.1,64.4,60.5z"/>
			<path class="st0" d="M78.5,54.9v5.4c0,0.5,0.1,0.9,0.4,1.2c0.3,0.3,0.7,0.5,1.2,0.5s0.9-0.2,1.2-0.5s0.4-0.7,0.4-1.2v-5.4h1.4
				v5.5c0,0.5-0.1,0.9-0.2,1.2c-0.1,0.3-0.3,0.7-0.6,0.9c-0.3,0.2-0.6,0.4-0.9,0.6c-0.4,0.1-0.8,0.2-1.2,0.2s-0.8-0.1-1.2-0.2
				s-0.7-0.3-0.9-0.6s-0.5-0.5-0.6-0.9s-0.2-0.8-0.2-1.2v-5.5H78.5L78.5,54.9z"/>
			<path class="st0" d="M99.2,60.5c0.3,0.4,0.6,0.8,1,1s0.9,0.4,1.4,0.4c0.4,0,0.7,0,1.1-0.2c0.3-0.1,0.6-0.2,0.8-0.4
				c0.2-0.2,0.5-0.4,0.7-0.6v1.7c-0.3,0.3-0.7,0.5-1.1,0.6c-0.4,0.2-0.9,0.2-1.5,0.2s-1.2-0.1-1.7-0.3s-1-0.5-1.3-0.9
				s-0.7-0.8-0.9-1.3c-0.2-0.5-0.3-1.1-0.3-1.7s0.1-1.2,0.3-1.7c0.2-0.5,0.5-1,0.9-1.3c0.4-0.4,0.8-0.7,1.3-0.9
				c0.5-0.2,1.1-0.3,1.7-0.3s1.1,0.1,1.5,0.2s0.8,0.4,1.1,0.7v1.6c-0.2-0.2-0.4-0.4-0.7-0.6c-0.2-0.2-0.5-0.3-0.8-0.4
				s-0.7-0.2-1.1-0.2c-0.5,0-1,0.1-1.4,0.4s-0.8,0.6-1,1c-0.3,0.4-0.4,0.9-0.4,1.5S98.9,60.1,99.2,60.5L99.2,60.5z"/>
			<path class="st0" d="M112.2,60.2l0,0.3l-1.1,2.6h-1.6l4-8.6l4,8.7h-1.6l-1.1-2.5l0-0.3l-1.3-3L112.2,60.2L112.2,60.2z
				 M111.6,59.8h3.8l0.3,1.2h-4.3L111.6,59.8z"/>
			<path class="st0" d="M130.4,54.9v8.6l-6-5.9v5.5h-1.4v-8.6l6,5.9v-5.5H130.4z"/>
			<path class="st0" d="M146.5,60.5c0.3,0.4,0.6,0.8,1,1s0.9,0.4,1.4,0.4c0.4,0,0.7,0,1.1-0.2c0.3-0.1,0.6-0.2,0.9-0.4
				c0.2-0.2,0.5-0.4,0.7-0.6v1.7c-0.3,0.3-0.7,0.5-1.1,0.6c-0.4,0.2-0.9,0.2-1.5,0.2s-1.2-0.1-1.7-0.3c-0.5-0.2-1-0.5-1.4-0.9
				s-0.7-0.8-0.9-1.3c-0.2-0.5-0.3-1.1-0.3-1.7s0.1-1.2,0.3-1.7c0.2-0.5,0.5-1,0.9-1.3c0.4-0.4,0.8-0.7,1.4-0.9
				c0.5-0.2,1.1-0.3,1.7-0.3s1.1,0.1,1.5,0.2s0.8,0.4,1.1,0.7v1.6c-0.2-0.2-0.4-0.4-0.7-0.6c-0.2-0.2-0.5-0.3-0.9-0.4
				s-0.7-0.2-1.1-0.2c-0.5,0-1,0.1-1.4,0.4s-0.8,0.6-1,1c-0.3,0.4-0.4,0.9-0.4,1.5S146.3,60.1,146.5,60.5L146.5,60.5z"/>
			<path class="st0" d="M159.6,60.2l0,0.3l-1.1,2.6h-1.6l4-8.6l4,8.7h-1.6l-1.1-2.5l0-0.3l-1.3-3L159.6,60.2L159.6,60.2z M159,59.8
				h3.8L163,61h-4.3L159,59.8z"/>
			<path class="st0" d="M171.9,54.9v7h3.2v1.2h-4.6v-8.2C170.5,54.9,171.9,54.9,171.9,54.9z"/>
			<path class="st0" d="M182.2,54.9v7h3.2v1.2h-4.6v-8.2C180.8,54.9,182.2,54.9,182.2,54.9z"/>
			<path class="st0" d="M200.2,63.1h-1.4l1.1-8.6l3.4,5.6l3.4-5.6l1.1,8.6h-1.4l-0.6-5l-2.5,4.2l-2.5-4.2L200.2,63.1z"/>
			<path class="st0" d="M215.2,54.9v8.2h-1.4v-8.2H215.2z M214.7,54.9h4.1v1.2h-4.1V54.9z M214.7,58.1h3.9v1.2h-3.9V58.1z
				 M214.7,61.9h4.1v1.2h-4.1V61.9z"/>
		</g>
	</g>
</g>
</svg>
