<svg xmlns="http://www.w3.org/2000/svg" viewBox="0 0 579.86 831.64"><defs><style>.dafdb353-e301-4dc0-b676-3ffbbea55478{fill:#30b061;}.ab11f112-a8f0-4aaa-97f4-72d0fc76dec6{fill:#fab929;}.\33 2911758-dc8e-4a4e-be71-ee2fec2800a2{fill:#4d7dbc;}.ffc03554-65a2-4b21-8fc9-d7ab89fd73e2{fill:#ee5142;}.\39 c5d3746-e977-49dc-9fb2-262cc32bbbdc{fill:#3570b7;}</style></defs><title>Recurso 1</title><g id="b02b5770-d33c-4dab-98fc-2c0080d4fe87" data-name="Capa 2"><g id="553d45cf-15ae-4e08-a6df-bc392fecf777" data-name="Capa 1"><path class="dafdb353-e301-4dc0-b676-3ffbbea55478" d="M547,156.2c12.44,21.07,19.54,44.15,25.09,67.75,10.08,42.84,9.9,85.93,2.24,129.08A332.84,332.84,0,0,1,524.73,477.6C501.05,514,474.2,547.86,447,581.59c-29.9,37.1-58.78,74.95-83.68,115.72-15.83,25.92-27.23,53.65-36.66,82.34-3.69,11.23-7.05,22.56-11.52,33.53-7.12,17.47-27.28,24-41.31,13.16-6.3-4.89-9-12.23-11.51-19.42-9-25.92-16.75-52.3-28.63-77.15-15.62-32.67-36.14-62.31-57.22-91.58-5.12-7.11-10.48-14.05-15.71-21.06-.48-2,.92-3,2-4.32q12-14.22,24-28.52c15.32-18.28,30.56-36.63,46-54.84C244,516.21,255.5,503.24,266.7,490c14-16.54,27.68-33.29,41.62-49.86s28.36-33.22,42.39-50c5.74-6.86,12.5-12.89,17.06-20.73.25-.45.5-.89.76-1.33l0,0L383.78,349c2.44.29,4,0,5.08-3a25.63,25.63,0,0,1,7.51-10.42c1.43-1.23,3.17-2.46,3.48-4.38,1.36-8.4,9.72-11.55,13.53-18.26,3-5.31,8.21-9.32,12-14.25,1.67-2.18,2.91-4.12,5.9-4.66a8.9,8.9,0,0,0,7.49-7.54c.89-6.17,4.17-9.47,9.9-11.08,1.16-.32,2.92-1.55,2.94-2.4.1-4.44,3.78-6.45,6-9.3,6.37-8.08,13.87-15.14,19.34-24.1,4.06-6.64,11.18-11,15.4-17.93,2-3.26,3.83-7.41,7-9.33,10.43-6.25,16.66-15.8,22.2-26,1.39-2.58,4.28-3.44,5.24-7.13,1.36-5.2,6.38-10.39,10.41-12.55C542.32,164,543.73,159.59,547,156.2Z"/><path class="ab11f112-a8f0-4aaa-97f4-72d0fc76dec6" d="M367.76,369.43c-4.55,7.84-11.31,13.87-17.05,20.73-14,16.75-28.32,33.27-42.39,50S280.67,473.45,266.7,490c-11.2,13.25-22.74,26.22-33.95,39.46-15.4,18.21-30.64,36.56-46,54.84q-12,14.3-24,28.52c-1.09,1.29-2.49,2.34-2,4.32-7.79-7.71-13.61-17-20.58-25.34-6.37-7.64-12.55-15.43-18.69-23.24-8.87-11.3-17.41-22.87-26.52-34-6.55-8-12.42-16.43-18.53-24.72a528,528,0,0,1-36.32-57.4c-3.37-6.07-6.27-12.4-9.44-18.57-1.05-2-2.28-4-2.2-6.39,6.55-5,10.73-12.12,16.1-18.17,12.82-14.42,25-29.41,37.38-44.22,14.45-17.28,28.8-34.65,43.3-51.89,10-11.91,20.27-23.61,30.3-35.49,10.64-12.59,21.13-25.31,31.76-37.92.49-.59,1.73-.56,2.61-.82a18.73,18.73,0,0,1-.62,3.94c-6.25,16.4-10.51,33.05-9.83,50.9.86,22.91,7.69,43.5,21.31,61.88,9.84,13.27,21.86,24.17,36.58,31.66a116.82,116.82,0,0,0,33.24,11.08c21.89,3.82,42.71,1.08,63-7.2C346.24,386.08,357,377.66,367.76,369.43Z"/><path class="32911758-dc8e-4a4e-be71-ee2fec2800a2" d="M547,156.2c-3.25,3.39-4.66,7.76-9.72,10.48-4,2.16-9,7.35-10.41,12.55-1,3.69-3.85,4.55-5.24,7.13-5.54,10.24-11.77,19.79-22.2,26-3.2,1.92-5,6.07-7,9.33C488.16,228.65,481,233,477,239.66c-5.47,9-13,16-19.34,24.1-2.25,2.85-5.93,4.86-6,9.3,0,.85-1.78,2.08-2.94,2.4-5.73,1.61-9,4.91-9.9,11.08a8.9,8.9,0,0,1-7.49,7.54c-3,.54-4.23,2.48-5.9,4.66-3.79,4.93-9,8.94-12,14.25-3.81,6.71-12.17,9.86-13.53,18.26-.31,1.92-2.05,3.15-3.48,4.38a25.63,25.63,0,0,0-7.51,10.42c-1.1,3-2.64,3.26-5.08,3,1-2.24,2-4.51,3.14-6.7,10.88-21.09,15.17-43.23,12.25-67-7.49-60.86-68.47-105.49-128.67-94.08-19.2,3.64-36,12.16-51.61,23.4-.15-.72-.68-1.83-.4-2.1,4.28-4.18,7.48-9.22,11.26-13.79,9.67-11.67,20.12-22.71,29.54-34.57,14.87-18.71,31-36.33,46-54.88,9.57-11.81,19.41-23.39,29.28-35,8-9.38,15.91-18.85,23.78-28.32,6.11-7.35,13.89-13.59,17.57-22.85,16.18,4,31.28,10.84,46,18.36,54.48,27.81,95.87,69,124.46,123A9.49,9.49,0,0,1,547,156.2Z"/><path class="ffc03554-65a2-4b21-8fc9-d7ab89fd73e2" d="M190,239c-.89.26-2.13.23-2.62.82-10.63,12.61-21.12,25.33-31.76,37.92-10,11.88-20.29,23.58-30.3,35.49-14.5,17.24-28.85,34.61-43.3,51.89-12.39,14.81-24.56,29.8-37.38,44.22-5.37,6.05-9.55,13.17-16.1,18.17-8.78-16.43-13.66-34.25-18.16-52.16A330,330,0,0,1,1.15,266.39a287.81,287.81,0,0,1,37-119.71,250.37,250.37,0,0,1,21.19-31.8c1.63-.48,3.23-1,2.47-3.3l1.69-2c.24.06.49.11.74.15l-.2-.72,1.73-2c1.38.64.74-.36.7-.88a3.85,3.85,0,0,1,.8-.66c3.79.39,4.94,5.76,9.36,5,5.79,4.21,9.84,10.41,16.18,14,2.85,4.18,6.05,7.94,11.33,9.11,6.75,6,13.43,12,20.41,17.78,19.64,16.16,38.88,32.81,58.33,49.19,7.22,6.09,14,12.72,21.94,18Z"/><path class="9c5d3746-e977-49dc-9fb2-262cc32bbbdc" d="M204.86,218.43c-7.92-5.24-14.72-11.87-21.94-18-19.45-16.38-38.69-33-58.33-49.19-7-5.75-13.66-11.8-20.41-17.78-2.3-4.88-3.91-10.61-11.33-9.11-6.34-3.57-10.39-9.77-16.18-14-.09-1.81.27-3.49-2.28-4.46-4-1.52-3.16-4.83-.37-6.23,3.1-1.55,2.47-3.76,2.74-6a273.68,273.68,0,0,1,70.33-56.2C216.38-1.66,289.77-8.93,366.38,10c3.26.81,6.39,2.11,9.59,3.19-3.68,9.26-11.46,15.5-17.57,22.85-7.87,9.47-15.78,18.94-23.78,28.32-9.87,11.57-19.71,23.15-29.28,35-15,18.55-31.18,36.17-46,54.88-9.42,11.86-19.87,22.9-29.54,34.57-3.78,4.57-7,9.61-11.26,13.79-.28.27.25,1.38.4,2.1l0,0c-1,0-1.93.18-2,1.47l.05-.08a1.1,1.1,0,0,0-1.22,1.12v0l-1.26,1.16Z"/><path class="32911758-dc8e-4a4e-be71-ee2fec2800a2" d="M76.76,93.68c-.27,2.28.36,4.49-2.74,6-2.79,1.4-3.62,4.71.37,6.23,2.55,1,2.19,2.65,2.28,4.46-4.42.79-5.57-4.58-9.36-5C69.14,100.46,73.11,97.2,76.76,93.68Z"/><path class="32911758-dc8e-4a4e-be71-ee2fec2800a2" d="M61.85,111.58c.76,2.3-.84,2.82-2.47,3.3Z"/><path class="32911758-dc8e-4a4e-be71-ee2fec2800a2" d="M66.51,106.1c0,.52.68,1.52-.7.88C66.06,106.68,66.29,106.39,66.51,106.1Z"/><path class="32911758-dc8e-4a4e-be71-ee2fec2800a2" d="M64.08,109l.2.72c-.25,0-.5-.09-.74-.15A1.24,1.24,0,0,1,64.08,109Z"/><path class="ab11f112-a8f0-4aaa-97f4-72d0fc76dec6" d="M368.53,368.1l0,0Z"/><path class="32911758-dc8e-4a4e-be71-ee2fec2800a2" d="M92.85,124.39c7.42-1.5,9,4.23,11.33,9.11C98.9,132.33,95.7,128.57,92.85,124.39Z"/><path class="32911758-dc8e-4a4e-be71-ee2fec2800a2" d="M218.86,204.7a2.19,2.19,0,0,1-2.05,1.47C216.93,204.88,217.82,204.69,218.86,204.7Z"/><path class="32911758-dc8e-4a4e-be71-ee2fec2800a2" d="M216.87,206.09l-1.22,1.12A1.1,1.1,0,0,1,216.87,206.09Z"/><path class="32911758-dc8e-4a4e-be71-ee2fec2800a2" d="M215.65,207.19l-1.26,1.16Z"/></g></g></svg>