<svg xmlns="http://www.w3.org/2000/svg" viewBox="0 0 988.26 988.26"><defs><style>.c3ee3133-178c-4f28-ab18-7ca870b9acd8{fill:#01ea5a;}</style></defs><title>Recurso 2</title><g id="3eab500d-5932-413c-83e1-57912179eb0b" data-name="Capa 2"><g id="1e1e5068-4c7f-4f6f-8f01-649141164aba" data-name="Capa 1"><circle class="c3ee3133-178c-4f28-ab18-7ca870b9acd8" cx="494.13" cy="494.13" r="494.13"/><path d="M799.33,396.1,859,331.23H726.73a413.09,413.09,0,0,0-464.76,0H129.41L189,396.1a182,182,0,0,0-59,147.66C136.24,633.69,209,706.4,298.9,712.61a181.87,181.87,0,0,0,136.82-48.14l58.41,63.61,58.41-63.55a181.55,181.55,0,0,0,123.84,48.53c100.65,0,182.36-81.6,182.36-182.25A181.44,181.44,0,0,0,799.33,396.1ZM311.88,655.78A123.34,123.34,0,1,1,435.22,532.45,123.32,123.32,0,0,1,311.88,655.78Zm182.3-126.92c0-81.16-59-150.84-136.92-180.6a355.91,355.91,0,0,1,273.79,0C553.2,378.08,494.18,447.7,494.18,528.86ZM676.43,655.78A123.34,123.34,0,1,1,799.77,532.45,123.32,123.32,0,0,1,676.43,655.78Zm0-188a64.65,64.65,0,1,0,64.65,64.65A64.63,64.63,0,0,0,676.43,467.74Zm-299.9,64.71a64.65,64.65,0,1,1-64.65-64.66A64.63,64.63,0,0,1,376.53,532.45Z"/></g></g></svg>