<svg xmlns="http://www.w3.org/2000/svg" viewBox="0 0 32 32"><defs><style>.af82420e-32b2-45bd-834f-49b19652de48{fill:#fff;}.\31 9d33d12-3c16-4152-9b1f-195d458ca256{fill:#7c0053;}</style></defs><title>Recurso 1</title><g id="3ee9b17c-c64b-4817-a9cf-ec72d14c25a1" data-name="Capa 2"><g id="81a2a545-4b32-4007-b702-a6182462b75d" data-name="Capa 1"><circle class="af82420e-32b2-45bd-834f-49b19652de48" cx="16" cy="16" r="16"/><path d="M19.11,17.77l-1.08,1a2,2,0,0,1-.33.24c-.48.28-.85.07-.89-.48a.41.41,0,0,0-.08-.3l-1.1,1.35c-.05.07,0,.12,0,.19a1.35,1.35,0,0,1-1.34,1.5c-.26,0-.36-.23-.23-.5a3.52,3.52,0,0,1,.76-.92.38.38,0,0,0,.06-.58,3.85,3.85,0,0,1-.69-1.68c-.4.15-.78.23-1,.65a1.84,1.84,0,0,1-1.17.88c-.7.18-1.14-.19-1-.9a3.17,3.17,0,0,0,0-.87c-.14-.79,1-1.85,1.81-1.7a1.1,1.1,0,0,1,.93,1.26c0,.2-.07.4-.1.61.55,0,.54,0,.68-.51a3.26,3.26,0,0,1,1.62-1.91,1,1,0,0,1,.35-.1c.56-.07.72.13.61.69l-.06,0c-.16-.52-.31-.58-.79-.27a3.47,3.47,0,0,0-1,1,1.73,1.73,0,0,0-.1,1.9c.16.29.33.57.52.9.6-.75,1.43-1.25,1.84-2.14a2.48,2.48,0,0,1,1.13-1.2.9.9,0,0,1,1.26.29c0,.05.08.12,0,.19s-.12,0-.17-.07a.71.71,0,0,0-1.11,0,3.3,3.3,0,0,0-1.11,2.34,2.56,2.56,0,0,0,.71-.52c.33-.3.66-.63,1-.94a2.8,2.8,0,0,1,.33-.24c.26-.13.44,0,.47.27a2.48,2.48,0,0,1-.29,1.15s.1,0,.11,0c.38-.43.9-.76,1.08-1.37.27-.92.57-1.84.86-2.8H19.37A15.25,15.25,0,0,1,17.24,14c0-.17.12-.13.18-.13,1.34-.07,2.67-.15,4-.2a.37.37,0,0,0,.42-.33,10.87,10.87,0,0,1,.3-1.08,2.32,2.32,0,0,1,0,1.08c-.05.23,0,.33.25.31.49,0,1,0,1.48,0,.16,0,.24,0,.28-.21a9.28,9.28,0,0,1,.35-1.17,2.39,2.39,0,0,1,0,1c-.09.31,0,.38.32.37a25.71,25.71,0,0,1,4.88.22,6.28,6.28,0,0,1,.71.16.87.87,0,0,1-.53.08c-1.76,0-3.51,0-5.28,0-.15,0-.28,0-.33.19-.38,1.44-.77,2.86-1.14,4.29a1.91,1.91,0,0,0-.08.91,25.9,25.9,0,0,0,2.21-2.09c.06.12,0,.19,0,.27a10,10,0,0,1-1.57,1.93,1.7,1.7,0,0,1-.3.23.49.49,0,0,1-.78-.41,3.58,3.58,0,0,1,.16-1.18.41.41,0,0,0,0-.31l-.63.81a6.36,6.36,0,0,1-.95,1,.58.58,0,0,1-.66.14c-.24-.13-.26-.35-.27-.59a4.11,4.11,0,0,1,.17-1,.74.74,0,0,0,0-.37c-.15.22-.28.41-.42.59a2.33,2.33,0,0,1-.27.35c-.16.17-.35.35-.59.22s-.14-.36-.08-.56l.18-.69a.12.12,0,0,0,0-.15A.37.37,0,0,0,19.11,17.77Zm-7.61-.89s0,.07,0,.08.06,0,.07,0,.09,0,0-.08S11.53,16.85,11.5,16.88ZM13,18.12c-.44-.1-.9.09-1.33-.11-.06,0-.1,0-.11.1a.72.72,0,0,0,.14.55.39.39,0,0,0,.46.07,2.33,2.33,0,0,0,.84-.61h0Zm-1.13-1.4a.09.09,0,0,1,.06,0c-.13.2-.25.4-.39.6s-.06.25.09.31a2.36,2.36,0,0,0,1.29,0c.07,0,.1-.07.13-.14a1.58,1.58,0,0,0,.13-.93.51.51,0,0,0-.41-.45,1.17,1.17,0,0,0-1.18.67C11.72,16.85,11.77,16.72,11.87,16.72Zm8.79,2.81a1.17,1.17,0,0,0,.52-.35c.37-.37.73-.78,1.13-1.13a2.64,2.64,0,0,0,.81-1.37c.22-.83.51-1.64.77-2.49H22.14c-.18,0-.22.08-.26.23-.28,1-.58,2.08-.85,3.12A7.62,7.62,0,0,0,20.66,19.53ZM17,18.18h0l0,0h0Z"/><path d="M14.58,23.15a7,7,0,0,1-5-1.45,16.67,16.67,0,0,1-2.25-1.94,13.47,13.47,0,0,0-1.49-1.3,50.56,50.56,0,0,0-1.15,5,1.24,1.24,0,0,1-.08-.74,28.84,28.84,0,0,1,.76-4.23c.09-.41,0-.52-.42-.5a2.62,2.62,0,0,1-1.08-.09,1.21,1.21,0,0,1-.75-.76.43.43,0,0,1,0-.45.41.41,0,0,1,.45-.07,4.19,4.19,0,0,1,1.32.7.39.39,0,0,0,.37.1.48.48,0,0,0,.42-.4c.46-2,1-3.93,1.29-5.94,0-.22,0-.45.06-.69a1.75,1.75,0,0,0-1.16.74c-.34.53-.72,1-1.09,1.51-.07.09-.11.23-.33.19l.9-1.6c0-.08,0-.13-.09-.07a11.62,11.62,0,0,0-3.46,2.34,3,3,0,0,0-.69,1,.78.78,0,0,0,.38,1.07,2.77,2.77,0,0,0,1,.31.49.49,0,0,1,.36.2l-.65-.11C.8,15.65.45,14.73,1.34,13.58a9.57,9.57,0,0,1,2.11-1.85,14.65,14.65,0,0,1,2.32-1.3A1.3,1.3,0,0,0,6.29,10c.36-.44.54-.48,1.08-.3a.44.44,0,0,0,.32-.06,7.93,7.93,0,0,1,2.85-.47,2.92,2.92,0,0,1,1.27.33,1.8,1.8,0,0,1,.83,2.32A5.71,5.71,0,0,1,11.28,14a14.23,14.23,0,0,1-5,3.6c-.34.15-.37.41-.1.63,1,.85,1.91,1.84,2.92,2.69a8.9,8.9,0,0,0,3.83,2,7,7,0,0,0,1.64.13A.18.18,0,0,1,14.58,23.15ZM6.24,17.06l.38-.17a14.36,14.36,0,0,0,4.32-3.3,5.32,5.32,0,0,0,1.27-2,1.33,1.33,0,0,0-1.1-1.83A6.15,6.15,0,0,0,8,10c-.33.09-.49.22-.4.58a1.23,1.23,0,0,1,0,.38,37.65,37.65,0,0,1-.76,3.92C6.6,15.62,6.42,16.32,6.24,17.06ZM3.58,17a.75.75,0,0,0,1,.45A3,3,0,0,0,3.58,17Z"/><path class="19d33d12-3c16-4152-9b1f-195d458ca256" d="M28.62,20.83a2.79,2.79,0,0,1-2.71-2.43.37.37,0,0,0-.1-.31,1,1,0,0,1,.3-1.51,1.28,1.28,0,0,0,.52-.43,2.51,2.51,0,0,1,2.39-.7c.23.09.49.07.72.18a2.6,2.6,0,0,1,1.6,2.18,2.75,2.75,0,0,1-1.15,2.56A2.87,2.87,0,0,1,28.62,20.83ZM26.2,18a2.8,2.8,0,0,0,.22,1.17A2.23,2.23,0,0,0,28,20.53a2.58,2.58,0,0,0,2.7-.8,1.15,1.15,0,0,0,.31-.88,1.88,1.88,0,0,1,.05-.78,1.3,1.3,0,0,0-.25-1.27,2.54,2.54,0,0,0-3-1A2.57,2.57,0,0,0,26.2,18Z"/><path d="M14.58,23.15a.34.34,0,0,0,0-.1l.33,0s0,0,0,.06Z"/><path d="M11.87,16.72s0-.07.07,0,0,.06,0,.09Z"/></g></g></svg>